<?xml version="1.0" encoding="utf-8"?>
<!-- Generator: Adobe Illustrator 21.1.0, SVG Export Plug-In . SVG Version: 6.00 Build 0)  -->
<svg version="1.1" id="Layer_1" xmlns="http://www.w3.org/2000/svg" xmlns:xlink="http://www.w3.org/1999/xlink" x="0px" y="0px"
	 viewBox="0 0 77 77" style="enable-background:new 0 0 77 77;" xml:space="preserve">
<style type="text/css">
	.st0{fill:#005696;}
	.st1{fill:#00B0DA;}
	.st2{fill:#87898B;}
	.st3{fill:#F5853A;}
	.st4{fill:#77905A;}
	.st5{fill:#4574A2;}
	.st6{fill:#6F3370;}
	.st7{fill:#00C6D7;}
	.st8{fill:#00B9E4;}
	.st9{fill:#007AC9;}
	.st10{fill:#0065BD;}
	.st11{fill:#003478;}
</style>
<path class="st0" d="M-716.3-316.2c3.9,6.5,3.7,15.5-0.4,26.8c-0.5,1.2-1.1,2.7-1.9,4.5c-7.4-15-16.2-30-26.4-44.6l2.1,0.3
	C-734-327.9-721.7-325.2-716.3-316.2 M-823.9-198.3c4.9,12.6,10,19.1,16.1,20.3c7.6,1.5,17.7-4.7,32.7-20.4c3-3.2,6.3-6.9,9.8-11.3
	c-17,0.4-37.5,2.1-61,5C-825.9-203.4-823.9-198.3-823.9-198.3 M-858-268c9,13.9,17.2,29.5,25.2,47.9c2.2-0.3,4.5-0.7,6.7-1
	c22.5-3.4,47.5-4.9,72.3-4.2c13.7-19.5,25.7-40.6,31.8-52.9c-9-17.3-20.4-34.6-34.6-52.6c-21.1-1.8-44.8-1.5-68.8,1
	c-3.4,8-8.8,20-16.3,33.1C-848-285.8-853.4-276.4-858-268 M-714.7-368.5c-27.2-27.2-63.4-42.2-101.9-42.2
	c-32.2,0-62.7,10.4-88.2,30.1c-24.3,18.8-42.1,45.2-50.5,74.6c31.1-15.1,71.9-26.9,115.4-33.3c3-9.5,5.2-18.4,7.1-26.2
	c4-16.4,6.8-28.2,14.4-30.4c8.2-2.3,21.2,6.7,45,30.9c0,0,0,0,0,0l0,0l18,21.4c10,0.7,19.3,1.9,27.3,3.5l1,0.2
	c7.5,1.5,23.3,4.7,29.8,16.3c3.7,6.7,3.8,15.1,0.1,25.2c-4.2,11.5-8.5,21.9-13.3,31.9c4.1,10.1,7.5,20.2,10.2,30.1
	c0.1,0.5,0.3,1.3,0.4,2.1c0.3,2.4-1.5,4.8-1.6,4.9l-0.7,0.9l-0.4-1.2c-2.9-10.3-6.6-20.6-10.9-30.6c-6.4,12.7-13.5,24.5-21.6,36
	c21,1.6,39.3,4.7,53.1,9c6.2-16.4,9.4-33.7,9.4-51.4C-672.5-305.1-687.5-341.3-714.7-368.5 M-871.9-223.8c3.4,5.1,12.9,6.5,30.7,4.7
	c-6.2-15.7-12.8-29.7-20.1-42.7C-870.9-243.7-876.4-230.4-871.9-223.8 M-767.5-344.1c-17.2-20.3-27-28.2-33.9-27.1
	c-7.2,1.1-11.7,12.1-18.6,28.8l-0.2,0.6C-801.6-343.8-783.9-344.6-767.5-344.1 M-746.1-209.5c-8.4,10.5-18,21.2-30.4,34
	c-17.9,18.4-27.9,26.8-35.8,24.8c-5.5-1.4-9.6-7.9-13.3-21.1c-3.1-11.1-6.4-21.7-9.9-31.6l-13.1,1.9c-29.5,4.3-45.9,1.9-51.6-7.2
	c-8.3-13,7.1-38.4,28.1-70.3c-4.7-7-9.6-13.5-15-19.9c-0.6-0.6-1-1.1-1.3-1.6l-0.7-0.9l1.2-0.1c1.9-0.1,3.7,0.5,5.1,1.8
	c4.7,5,9.4,10.5,13.8,16.2l2.1-3.2l9.5-14.4c5.2-8,9.6-16.6,13.4-26.1c-53.7,8.1-92.4,24.8-108.7,45.9c-6.3,7.7-8.7,15.4-7.1,29.6
	c3.8,33.1,17.1,62.5,41.8,87.5c26.9,27.2,63.2,41.9,101.5,41.9c42.1,0,82-18.4,109.4-50.3c6.6-8.8,8.6-16.2,5.8-21.9
	C-705.6-203.5-720.6-208.4-746.1-209.5"/>
<g>
	<g>
		<g>
			<g>
				<path class="st0" d="M-411.6-341.4c5.9-10.2,10.1-19.6,12.8-25.8c18.7-1.9,37.3-2.2,53.7-0.7c11.1,14.1,20,27.6,27.1,41.1
					c-4.8,9.6-14.2,26-24.9,41.3c-19.3-0.6-38.9,0.6-56.4,3.3c-1.8,0.3-3.5,0.5-5.2,0.8c-6.2-14.4-12.7-26.6-19.7-37.4
					C-420.8-325.6-416.5-332.9-411.6-341.4 M-427-314.1c5.7,10.1,10.9,21.1,15.7,33.3c-13.9,1.4-21.3,0.3-24-3.7
					C-438.7-289.6-434.5-300-427-314.1 M-399.7-269.5c18.3-2.3,34.4-3.6,47.7-3.9c-2.7,3.4-5.3,6.3-7.6,8.8
					c-11.7,12.2-19.5,17.1-25.5,15.9c-4.8-0.9-8.8-6-12.5-15.8C-397.7-264.5-399.3-268.6-399.7-269.5 M-315.6-332.2
					c-5.8-11.7-12.7-23.4-20.6-34.8l1.7,0.2c6.9,1,16.5,3.1,20.8,10.2c3,5.1,2.9,12.1-0.3,20.9
					C-314.4-334.8-314.9-333.6-315.6-332.2 M-353.7-378.5c-12.8-0.4-26.6,0.2-41.2,1.8l0.2-0.5c5.4-13,8.9-21.6,14.5-22.5
					C-374.9-400.5-367.2-394.3-353.7-378.5 M-497.2-350.2c-2.6,8.4-4.3,17.2-4.9,26.2c0.9-1.9,2.1-3.7,3.6-5.5
					c12.7-16.5,42.9-29.5,84.9-35.8c-3,7.4-6.4,14.2-10.5,20.4l-7.4,11.2l-1.6,2.5c-3.5-4.4-7.1-8.7-10.8-12.6c-1-1-2.5-1.5-4-1.4
					l-0.9,0.1l0.6,0.7c0.3,0.4,0.6,0.8,1,1.3c4.2,5,8,10.1,11.7,15.5c-16.4,24.9-28.4,44.7-21.9,54.9c4.5,7.1,17.3,8.9,40.3,5.6
					l10.2-1.5c2.7,7.7,5.3,16,7.7,24.7c2.9,10.3,6.1,15.4,10.4,16.5c6.2,1.6,14-5,28-19.3c9.6-9.9,17.2-18.3,23.7-26.5
					c19.9,0.8,31.7,4.7,34.9,11.6c1.3,2.6,1.2,5.7,0,9.2c5.7-7.9,10.3-16.5,13.8-25.7c-10.6-3.2-24.4-5.4-40-6.6
					c6.4-8.9,11.9-18.2,16.9-28.1c3.3,7.8,6.2,15.8,8.5,23.9l0.3,0.9l0.6-0.7c0.1-0.1,1.5-1.9,1.3-3.8c-0.1-0.6-0.2-1.2-0.3-1.6
					c-2-7.8-4.7-15.6-7.9-23.5c3.7-7.8,7.1-15.9,10.4-24.9c2.9-7.8,2.8-14.4-0.1-19.6c-5.1-9.1-17.4-11.6-23.3-12.7l-0.8-0.2
					c-6.3-1.3-13.5-2.2-21.3-2.7l-14.1-16.7l0,0c0,0,0,0,0,0c-18.6-18.9-28.8-25.9-35.1-24.2c-6,1.6-8.2,10.9-11.3,23.7
					c-1.5,6.2-3.2,13.1-5.5,20.5C-442.8-369.9-473.4-361.3-497.2-350.2"/>
			</g>
		</g>
	</g>
</g>
<g>
	<g>
		<g>
			<g>
				<path class="st1" d="M-433.3-131.8c5.9-10.2,10.1-19.6,12.8-25.8c18.7-1.9,37.3-2.2,53.7-0.7c11.1,14.1,20,27.6,27.1,41.1
					c-4.8,9.6-14.2,26-24.9,41.3c-19.3-0.6-38.9,0.6-56.4,3.3c-1.8,0.3-3.5,0.5-5.2,0.8c-6.2-14.4-12.7-26.6-19.7-37.4
					C-442.4-115.9-438.1-123.3-433.3-131.8 M-448.6-104.5c5.7,10.1,10.9,21.1,15.7,33.3c-13.9,1.4-21.3,0.3-24-3.7
					C-460.3-80-456.1-90.4-448.6-104.5 M-421.3-59.9c18.3-2.3,34.4-3.6,47.7-3.9c-2.7,3.4-5.3,6.3-7.6,8.8
					c-11.7,12.2-19.5,17.1-25.5,15.9c-4.8-0.9-8.8-6-12.5-15.8C-419.4-54.9-420.9-59-421.3-59.9 M-337.2-122.6
					c-5.8-11.7-12.7-23.4-20.6-34.8l1.7,0.2c6.9,1,16.5,3.1,20.8,10.2c3,5.1,2.9,12.1-0.3,20.9C-336-125.2-336.5-124-337.2-122.6
					 M-375.3-168.8c-12.8-0.4-26.6,0.2-41.2,1.8l0.2-0.5c5.4-13,8.9-21.6,14.5-22.5C-396.5-190.9-388.8-184.7-375.3-168.8
					 M-518.8-140.6c-2.6,8.4-4.3,17.2-4.9,26.2c0.9-1.9,2.1-3.7,3.6-5.5c12.7-16.5,42.9-29.5,84.9-35.8c-3,7.4-6.4,14.2-10.5,20.4
					l-7.4,11.2l-1.6,2.5c-3.5-4.4-7.1-8.7-10.8-12.6c-1-1-2.5-1.5-4-1.4l-0.9,0.1l0.6,0.7c0.3,0.4,0.6,0.8,1,1.3
					c4.2,5,8,10.1,11.7,15.5c-16.4,24.9-28.4,44.7-21.9,54.9c4.5,7.1,17.3,8.9,40.3,5.6l10.2-1.5c2.7,7.7,5.3,16,7.7,24.7
					c2.9,10.3,6.1,15.4,10.4,16.5c6.2,1.6,14-5,28-19.3c9.6-9.9,17.2-18.3,23.7-26.5c19.9,0.8,31.7,4.7,34.9,11.6
					c1.3,2.6,1.2,5.7,0,9.2c5.7-7.9,10.3-16.5,13.8-25.7c-10.6-3.2-24.4-5.4-40-6.6c6.4-8.9,11.9-18.2,16.9-28.1
					c3.3,7.8,6.2,15.8,8.5,23.9l0.3,0.9l0.6-0.7c0.1-0.1,1.5-1.9,1.3-3.8c-0.1-0.6-0.2-1.2-0.3-1.6c-2-7.8-4.7-15.6-7.9-23.5
					c3.7-7.8,7.1-15.9,10.4-24.9c2.9-7.8,2.8-14.4-0.1-19.6c-5.1-9.1-17.4-11.6-23.3-12.7l-0.8-0.2c-6.3-1.3-13.5-2.2-21.3-2.7
					l-14.1-16.7l0,0c0,0,0,0,0,0c-18.6-18.9-28.8-25.9-35.1-24.2c-6,1.6-8.2,10.9-11.3,23.7c-1.5,6.2-3.2,13.1-5.5,20.5
					C-464.4-160.3-495-151.7-518.8-140.6"/>
			</g>
		</g>
	</g>
</g>
<g>
	<path class="st0" d="M-710.4,14.4c-0.9-1.5-3-2-4.5-2.2l-0.4-0.1c1.7,2.5,3.2,5,4.4,7.5c0.1-0.3,0.2-0.6,0.3-0.8
		C-709.8,17-709.8,15.5-710.4,14.4"/>
	<path class="st0" d="M-728.5,34.3c0.8,2.1,1.7,3.2,2.7,3.4c1.3,0.3,3-0.8,5.5-3.4c0.5-0.5,1.1-1.2,1.7-1.9
		c-2.9,0.1-6.3,0.4-10.3,0.8C-728.9,33.4-728.5,34.3-728.5,34.3"/>
	<path class="st0" d="M-734.3,22.5c1.5,2.3,2.9,5,4.3,8.1c0.4,0,0.8-0.1,1.1-0.2c3.8-0.6,8-0.8,12.2-0.7c2.3-3.3,4.3-6.8,5.4-8.9
		c-1.5-2.9-3.4-5.8-5.8-8.9c-3.6-0.3-7.6-0.3-11.6,0.2c-0.6,1.3-1.5,3.4-2.8,5.6C-732.6,19.5-733.5,21.1-734.3,22.5"/>
	<path class="st0" d="M-710.1,5.6c-4.6-4.6-10.7-7.1-17.2-7.1c-5.4,0-10.6,1.7-14.9,5.1c-4.1,3.2-7.1,7.6-8.5,12.6
		c5.2-2.5,12.1-4.5,19.5-5.6c0.5-1.6,0.9-3.1,1.2-4.4c0.7-2.8,1.1-4.8,2.4-5.1c1.4-0.4,3.6,1.1,7.6,5.2c0,0,0,0,0,0l0,0l3,3.6
		c1.7,0.1,3.2,0.3,4.6,0.6l0.2,0c1.3,0.3,3.9,0.8,5,2.8c0.6,1.1,0.6,2.6,0,4.2c-0.7,1.9-1.4,3.7-2.2,5.4c0.7,1.7,1.3,3.4,1.7,5.1
		c0,0.1,0,0.2,0.1,0.4c0.1,0.4-0.3,0.8-0.3,0.8l-0.1,0.2l-0.1-0.2c-0.5-1.7-1.1-3.5-1.8-5.2c-1.1,2.1-2.3,4.1-3.6,6.1
		c3.5,0.3,6.6,0.8,9,1.5c1.1-2.8,1.6-5.7,1.6-8.7C-703,16.3-705.5,10.2-710.1,5.6"/>
	<path class="st0" d="M-736.7,30c0.6,0.9,2.2,1.1,5.2,0.8c-1-2.6-2.2-5-3.4-7.2C-736.5,26.6-737.4,28.9-736.7,30"/>
	<path class="st0" d="M-719,9.7c-2.9-3.4-4.6-4.8-5.7-4.6c-1.2,0.2-2,2-3.1,4.9l0,0.1C-724.8,9.7-721.8,9.6-719,9.7"/>
	<path class="st0" d="M-715.4,32.4c-1.4,1.8-3,3.6-5.1,5.7c-3,3.1-4.7,4.5-6,4.2c-0.9-0.2-1.6-1.3-2.2-3.6c-0.5-1.9-1.1-3.7-1.7-5.3
		l-2.2,0.3c-5,0.7-7.7,0.3-8.7-1.2c-1.4-2.2,1.2-6.5,4.7-11.8c-0.8-1.2-1.6-2.3-2.5-3.4c-0.1-0.1-0.2-0.2-0.2-0.3l-0.1-0.2l0.2,0
		c0.3,0,0.6,0.1,0.9,0.3c0.8,0.9,1.6,1.8,2.3,2.7l0.3-0.5l1.6-2.4c0.9-1.3,1.6-2.8,2.3-4.4c-9.1,1.4-15.6,4.2-18.3,7.7
		c-1.1,1.3-1.5,2.6-1.2,5c0.6,5.6,2.9,10.5,7.1,14.8c4.5,4.6,10.7,7.1,17.1,7.1c7.1,0,13.8-3.1,18.5-8.5c1.1-1.5,1.5-2.7,1-3.7
		C-708.6,33.4-711.1,32.6-715.4,32.4"/>
	<polygon class="st0" points="-864.3,90.4 -864.3,85.5 -863.6,85.5 -863.6,87.6 -861.2,87.6 -861.2,85.5 -860.5,85.5 -860.5,90.4 
		-861.2,90.4 -861.2,88.1 -863.6,88.1 -863.6,90.4 	"/>
	<path class="st0" d="M-856.2,90c0.5,0,0.9-0.2,1.2-0.5c0.3-0.4,0.4-0.9,0.4-1.5c0-0.6-0.1-1.1-0.4-1.5c-0.3-0.4-0.7-0.5-1.1-0.5
		c-0.5,0-0.9,0.2-1.1,0.5c-0.3,0.4-0.4,0.9-0.4,1.5c0,0.6,0.1,1.1,0.4,1.5C-857,89.8-856.7,90-856.2,90 M-856.2,90.5
		c-0.7,0-1.2-0.2-1.6-0.7c-0.4-0.5-0.6-1.1-0.6-1.9c0-0.8,0.2-1.4,0.6-1.9c0.4-0.5,1-0.7,1.7-0.7c0.7,0,1.2,0.2,1.7,0.7
		c0.4,0.5,0.6,1.1,0.6,1.9c0,0.8-0.2,1.4-0.6,1.9C-854.9,90.3-855.5,90.5-856.2,90.5"/>
	<path class="st0" d="M-850.8,90.5c-0.3,0-0.7-0.1-1.3-0.2v-0.7c0.5,0.3,1,0.4,1.3,0.4c0.3,0,0.5-0.1,0.7-0.2
		c0.2-0.1,0.2-0.3,0.2-0.6c0-0.2-0.1-0.4-0.2-0.5s-0.3-0.3-0.6-0.4l-0.3-0.2c-0.4-0.2-0.7-0.5-0.9-0.7s-0.3-0.5-0.3-0.7
		c0-0.4,0.1-0.7,0.4-0.9c0.3-0.2,0.6-0.4,1-0.4c0.4,0,0.8,0.1,1.2,0.2v0.6c-0.5-0.2-0.9-0.3-1.1-0.3c-0.2,0-0.4,0.1-0.6,0.2
		c-0.2,0.1-0.2,0.3-0.2,0.5c0,0.2,0.1,0.3,0.2,0.4c0.1,0.1,0.3,0.3,0.6,0.4l0.3,0.2c0.4,0.2,0.7,0.5,0.9,0.7s0.2,0.5,0.2,0.8
		c0,0.4-0.2,0.8-0.5,1C-849.9,90.4-850.3,90.5-850.8,90.5"/>
	<path class="st0" d="M-846.3,87.9h0.3c0.4,0,0.7-0.1,0.9-0.3c0.2-0.2,0.3-0.5,0.3-0.8c0-0.3-0.1-0.5-0.3-0.6
		c-0.2-0.1-0.5-0.2-0.9-0.2h-0.4V87.9z M-847,90.4v-4.9h1.3c0.6,0,1,0.1,1.3,0.3c0.3,0.2,0.4,0.5,0.4,1c0,0.5-0.2,0.9-0.5,1.2
		c-0.3,0.3-0.8,0.4-1.5,0.4h-0.3v1.9H-847z"/>
	<rect x="-842.1" y="85.5" class="st0" width="0.7" height="4.9"/>
	<polygon class="st0" points="-837.9,90.4 -837.9,86 -839.6,86 -839.6,85.5 -835.4,85.5 -835.4,86 -837.2,86 -837.2,90.4 	"/>
	<path class="st0" d="M-831.1,88.5l-0.8-2.1l-0.8,2.1H-831.1z M-830.4,90.4l-0.5-1.3h-2.1l-0.5,1.3h-0.6l1.9-4.9h0.7l1.9,4.9H-830.4
		z"/>
	<polygon class="st0" points="-827.8,90.4 -827.8,85.5 -827.1,85.5 -827.1,89.9 -824.9,89.9 -824.9,90.4 	"/>
	<path class="st0" d="M-816.4,88.4c0-0.3,0.1-0.6,0.3-0.8c0.2-0.2,0.5-0.3,0.8-0.3c0.3,0,0.6,0.1,0.8,0.3c0.2,0.2,0.3,0.5,0.3,0.8
		c0,0.3-0.1,0.6-0.3,0.8c-0.2,0.2-0.5,0.3-0.8,0.3c-0.3,0-0.6-0.1-0.8-0.3C-816.3,89-816.4,88.7-816.4,88.4"/>
	<polygon class="st0" points="-805,90.4 -805,85.5 -802.3,85.5 -802.3,86 -804.3,86 -804.3,87.6 -802.6,87.6 -802.6,88.1 
		-804.3,88.1 -804.3,89.9 -802.1,89.9 -802.1,90.4 	"/>
	<polygon class="st0" points="-800.2,90.4 -800.2,85.5 -799.5,85.5 -797,89.3 -797,85.5 -796.5,85.5 -796.5,90.4 -797.1,90.4 
		-799.6,86.6 -799.6,90.4 	"/>
	<path class="st0" d="M-793.1,90.5c-0.3,0-0.7-0.1-1.3-0.2v-0.7c0.5,0.3,1,0.4,1.3,0.4c0.3,0,0.5-0.1,0.7-0.2
		c0.2-0.1,0.2-0.3,0.2-0.6c0-0.2-0.1-0.4-0.2-0.5s-0.3-0.3-0.6-0.4l-0.3-0.2c-0.4-0.2-0.7-0.5-0.9-0.7c-0.2-0.2-0.3-0.5-0.3-0.7
		c0-0.4,0.1-0.7,0.4-0.9c0.3-0.2,0.6-0.4,1-0.4c0.4,0,0.8,0.1,1.2,0.2v0.6c-0.5-0.2-0.9-0.3-1.1-0.3c-0.2,0-0.4,0.1-0.6,0.2
		c-0.2,0.1-0.2,0.3-0.2,0.5c0,0.2,0.1,0.3,0.2,0.4c0.1,0.1,0.3,0.3,0.6,0.4l0.3,0.2c0.4,0.2,0.7,0.5,0.9,0.7s0.2,0.5,0.2,0.8
		c0,0.4-0.2,0.8-0.5,1C-792.2,90.4-792.6,90.5-793.1,90.5"/>
	<rect x="-789.3" y="85.5" class="st0" width="0.7" height="4.9"/>
	<polygon class="st0" points="-786.2,90.4 -786.2,85.5 -785.5,85.5 -783,89.3 -783,85.5 -782.5,85.5 -782.5,90.4 -783.1,90.4 
		-785.6,86.6 -785.6,90.4 	"/>
	<path class="st0" d="M-778.1,90c0.5,0,0.9-0.2,1.2-0.5c0.3-0.4,0.4-0.9,0.4-1.5c0-0.6-0.1-1.1-0.4-1.5c-0.3-0.4-0.7-0.5-1.1-0.5
		c-0.5,0-0.9,0.2-1.1,0.5c-0.3,0.4-0.4,0.9-0.4,1.5c0,0.6,0.1,1.1,0.4,1.5C-778.9,89.8-778.6,90-778.1,90 M-778.1,90.5
		c-0.7,0-1.2-0.2-1.6-0.7c-0.4-0.5-0.6-1.1-0.6-1.9c0-0.8,0.2-1.4,0.6-1.9c0.4-0.5,1-0.7,1.7-0.7c0.7,0,1.2,0.2,1.7,0.7
		c0.4,0.5,0.6,1.1,0.6,1.9c0,0.8-0.2,1.4-0.6,1.9C-776.8,90.3-777.4,90.5-778.1,90.5"/>
	<polygon class="st0" points="-770.4,90.4 -770.4,85.5 -767.7,85.5 -767.7,86 -769.7,86 -769.7,87.6 -768,87.6 -768,88.1 
		-769.7,88.1 -769.7,89.9 -767.5,89.9 -767.5,90.4 	"/>
	<path class="st0" d="M-761.6,87.9h0.3c0.4,0,0.7-0.1,0.9-0.3c0.2-0.2,0.3-0.5,0.3-0.8c0-0.3-0.1-0.5-0.3-0.6
		c-0.2-0.1-0.5-0.2-0.9-0.2h-0.4V87.9z M-762.3,90.4v-4.9h1.3c0.6,0,1,0.1,1.3,0.3c0.3,0.2,0.4,0.5,0.4,1c0,0.5-0.2,0.9-0.5,1.2
		c-0.3,0.3-0.8,0.4-1.5,0.4h-0.3v1.9H-762.3z"/>
	<polygon class="st0" points="-757.4,90.4 -757.4,85.5 -754.7,85.5 -754.7,86 -756.7,86 -756.7,87.6 -755,87.6 -755,88.1 
		-756.7,88.1 -756.7,89.9 -754.6,89.9 -754.6,90.4 	"/>
	<path class="st0" d="M-751.7,90.5c-0.3,0-0.7-0.1-1.3-0.2v-0.7c0.5,0.3,1,0.4,1.3,0.4c0.3,0,0.5-0.1,0.7-0.2
		c0.2-0.1,0.2-0.3,0.2-0.6c0-0.2-0.1-0.4-0.2-0.5s-0.3-0.3-0.6-0.4l-0.3-0.2c-0.4-0.2-0.7-0.5-0.9-0.7c-0.2-0.2-0.3-0.5-0.3-0.7
		c0-0.4,0.1-0.7,0.4-0.9c0.3-0.2,0.6-0.4,1-0.4c0.4,0,0.8,0.1,1.2,0.2v0.6c-0.5-0.2-0.9-0.3-1.1-0.3c-0.2,0-0.4,0.1-0.6,0.2
		c-0.2,0.1-0.2,0.3-0.2,0.5c0,0.2,0.1,0.3,0.2,0.4c0.1,0.1,0.3,0.3,0.6,0.4l0.3,0.2c0.4,0.2,0.7,0.5,0.9,0.7s0.2,0.5,0.2,0.8
		c0,0.4-0.2,0.8-0.5,1C-750.7,90.4-751.1,90.5-751.7,90.5"/>
	<path class="st0" d="M-745.9,90c0.5,0,0.9-0.2,1.2-0.5c0.3-0.4,0.4-0.9,0.4-1.5c0-0.6-0.1-1.1-0.4-1.5c-0.3-0.4-0.7-0.5-1.1-0.5
		c-0.5,0-0.9,0.2-1.1,0.5c-0.3,0.4-0.4,0.9-0.4,1.5c0,0.6,0.1,1.1,0.4,1.5C-746.7,89.8-746.3,90-745.9,90 M-743.5,91.4
		c-0.8-0.2-1.4-0.5-1.9-0.9c-0.2,0-0.4,0-0.5,0c-0.7,0-1.2-0.2-1.6-0.7c-0.4-0.5-0.6-1.1-0.6-1.9c0-0.8,0.2-1.4,0.6-1.9
		c0.4-0.5,1-0.7,1.7-0.7c0.7,0,1.2,0.2,1.7,0.7c0.4,0.5,0.6,1.1,0.6,1.9c0,1.1-0.4,1.9-1.2,2.3c0.6,0.2,1.1,0.4,1.7,0.5L-743.5,91.4
		z"/>
	<path class="st0" d="M-741.5,85.5h0.7v3.1c0,0.5,0.1,0.8,0.3,1.1c0.2,0.2,0.5,0.3,0.9,0.3c0.4,0,0.7-0.1,0.8-0.3
		c0.2-0.2,0.2-0.6,0.2-1.1v-3.1h0.6v3.1c0,0.7-0.1,1.1-0.4,1.5c-0.3,0.3-0.7,0.5-1.3,0.5c-0.6,0-1.1-0.2-1.3-0.5
		c-0.3-0.3-0.4-0.8-0.4-1.5V85.5z"/>
	<rect x="-735.6" y="85.5" class="st0" width="0.7" height="4.9"/>
	<path class="st0" d="M-731.6,90.5c-0.3,0-0.7-0.1-1.3-0.2v-0.7c0.5,0.3,1,0.4,1.3,0.4c0.3,0,0.5-0.1,0.7-0.2
		c0.2-0.1,0.2-0.3,0.2-0.6c0-0.2-0.1-0.4-0.2-0.5s-0.3-0.3-0.6-0.4l-0.3-0.2c-0.4-0.2-0.7-0.5-0.9-0.7c-0.2-0.2-0.3-0.5-0.3-0.7
		c0-0.4,0.1-0.7,0.4-0.9c0.3-0.2,0.6-0.4,1-0.4c0.4,0,0.8,0.1,1.2,0.2v0.6c-0.5-0.2-0.9-0.3-1.1-0.3c-0.2,0-0.4,0.1-0.6,0.2
		c-0.2,0.1-0.2,0.3-0.2,0.5c0,0.2,0.1,0.3,0.2,0.4c0.1,0.1,0.3,0.3,0.6,0.4l0.3,0.2c0.4,0.2,0.7,0.5,0.9,0.7s0.2,0.5,0.2,0.8
		c0,0.4-0.2,0.8-0.5,1C-730.7,90.4-731.1,90.5-731.6,90.5"/>
	<path class="st0" d="M-725.3,88.5l-0.8-2.1l-0.8,2.1H-725.3z M-724.6,90.4l-0.5-1.3h-2.1l-0.5,1.3h-0.6l1.9-4.9h0.7l1.9,4.9H-724.6
		z"/>
	<path class="st0" d="M-715.3,88.4c0-0.3,0.1-0.6,0.3-0.8c0.2-0.2,0.5-0.3,0.8-0.3c0.3,0,0.6,0.1,0.8,0.3c0.2,0.2,0.3,0.5,0.3,0.8
		c0,0.3-0.1,0.6-0.3,0.8c-0.2,0.2-0.5,0.3-0.8,0.3c-0.3,0-0.6-0.1-0.8-0.3C-715.2,89-715.3,88.7-715.3,88.4"/>
	<path class="st0" d="M-703.2,87.8h0.2c0.9,0,1.3-0.3,1.3-1c0-0.5-0.4-0.8-1.1-0.8h-0.4V87.8z M-703.9,90.4v-4.9h1.5
		c0.5,0,0.8,0.1,1.1,0.3c0.2,0.2,0.4,0.5,0.4,0.9c0,0.6-0.3,1.1-1,1.4l1.6,2.3h-0.8l-1.4-2.1h-0.6v2.1H-703.9z"/>
	<polygon class="st0" points="-698.5,90.4 -698.5,85.5 -695.8,85.5 -695.8,86 -697.8,86 -697.8,87.6 -696.1,87.6 -696.1,88.1 
		-697.8,88.1 -697.8,89.9 -695.6,89.9 -695.6,90.4 	"/>
	<path class="st0" d="M-692.7,90.5c-0.3,0-0.7-0.1-1.3-0.2v-0.7c0.5,0.3,1,0.4,1.3,0.4c0.3,0,0.5-0.1,0.7-0.2
		c0.2-0.1,0.2-0.3,0.2-0.6c0-0.2-0.1-0.4-0.2-0.5s-0.3-0.3-0.6-0.4l-0.3-0.2c-0.4-0.2-0.7-0.5-0.9-0.7c-0.2-0.2-0.3-0.5-0.3-0.7
		c0-0.4,0.1-0.7,0.4-0.9c0.3-0.2,0.6-0.4,1-0.4c0.4,0,0.8,0.1,1.2,0.2v0.6c-0.5-0.2-0.9-0.3-1.1-0.3c-0.2,0-0.4,0.1-0.6,0.2
		c-0.2,0.1-0.2,0.3-0.2,0.5c0,0.2,0.1,0.3,0.2,0.4c0.1,0.1,0.3,0.3,0.6,0.4l0.3,0.2c0.4,0.2,0.7,0.5,0.9,0.7s0.2,0.5,0.2,0.8
		c0,0.4-0.2,0.8-0.5,1C-691.8,90.4-692.2,90.5-692.7,90.5"/>
	<path class="st0" d="M-688.2,87.9h0.3c0.4,0,0.7-0.1,0.9-0.3c0.2-0.2,0.3-0.5,0.3-0.8c0-0.3-0.1-0.5-0.3-0.6
		c-0.2-0.1-0.5-0.2-0.9-0.2h-0.4V87.9z M-688.9,90.4v-4.9h1.3c0.6,0,1,0.1,1.3,0.3c0.3,0.2,0.4,0.5,0.4,1c0,0.5-0.2,0.9-0.5,1.2
		c-0.3,0.3-0.8,0.4-1.5,0.4h-0.3v1.9H-688.9z"/>
	<path class="st0" d="M-682.1,90c0.5,0,0.9-0.2,1.2-0.5c0.3-0.4,0.4-0.9,0.4-1.5c0-0.6-0.1-1.1-0.4-1.5c-0.3-0.4-0.7-0.5-1.1-0.5
		c-0.5,0-0.9,0.2-1.1,0.5c-0.3,0.4-0.4,0.9-0.4,1.5c0,0.6,0.1,1.1,0.4,1.5C-682.9,89.8-682.5,90-682.1,90 M-682.1,90.5
		c-0.7,0-1.2-0.2-1.6-0.7c-0.4-0.5-0.6-1.1-0.6-1.9c0-0.8,0.2-1.4,0.6-1.9c0.4-0.5,1-0.7,1.7-0.7c0.7,0,1.2,0.2,1.7,0.7
		c0.4,0.5,0.6,1.1,0.6,1.9c0,0.8-0.2,1.4-0.6,1.9C-680.8,90.3-681.4,90.5-682.1,90.5"/>
	<polygon class="st0" points="-677.6,90.4 -677.6,85.5 -677,85.5 -674.5,89.3 -674.5,85.5 -673.9,85.5 -673.9,90.4 -674.6,90.4 
		-677.1,86.6 -677.1,90.4 	"/>
	<path class="st0" d="M-670.6,90.5c-0.3,0-0.7-0.1-1.3-0.2v-0.7c0.5,0.3,1,0.4,1.3,0.4c0.3,0,0.5-0.1,0.7-0.2
		c0.2-0.1,0.2-0.3,0.2-0.6c0-0.2-0.1-0.4-0.2-0.5c-0.1-0.1-0.3-0.3-0.6-0.4l-0.3-0.2c-0.4-0.2-0.7-0.5-0.9-0.7s-0.3-0.5-0.3-0.7
		c0-0.4,0.1-0.7,0.4-0.9c0.3-0.2,0.6-0.4,1-0.4c0.4,0,0.8,0.1,1.2,0.2v0.6c-0.5-0.2-0.9-0.3-1.1-0.3c-0.2,0-0.4,0.1-0.6,0.2
		c-0.2,0.1-0.2,0.3-0.2,0.5c0,0.2,0.1,0.3,0.2,0.4c0.1,0.1,0.3,0.3,0.6,0.4l0.3,0.2c0.4,0.2,0.7,0.5,0.9,0.7s0.2,0.5,0.2,0.8
		c0,0.4-0.2,0.8-0.5,1C-669.6,90.4-670,90.5-670.6,90.5"/>
	<path class="st0" d="M-664.3,88.5l-0.8-2.1l-0.8,2.1H-664.3z M-663.5,90.4l-0.5-1.3h-2.1l-0.5,1.3h-0.6l1.9-4.9h0.7l1.9,4.9H-663.5
		z"/>
	<path class="st0" d="M-660.2,89.9h0.1c0.5,0,0.8,0,1-0.1c0.3-0.1,0.4-0.3,0.4-0.7c0-0.3-0.1-0.5-0.4-0.7c-0.3-0.2-0.6-0.3-1-0.3
		h-0.2V89.9z M-660.2,87.6h0.2c0.4,0,0.7-0.1,0.9-0.2c0.2-0.2,0.3-0.4,0.3-0.7c0-0.5-0.4-0.7-1.1-0.7h-0.3V87.6z M-660.9,90.4v-4.9
		h1.3c0.5,0,0.9,0.1,1.1,0.3c0.3,0.2,0.4,0.4,0.4,0.8c0,0.6-0.3,1-1,1.3c0.8,0.2,1.2,0.7,1.2,1.3c0,0.4-0.1,0.7-0.4,0.9
		c-0.3,0.2-0.6,0.3-1.1,0.3H-660.9z"/>
	<rect x="-655.9" y="85.5" class="st0" width="0.7" height="4.9"/>
	<polygon class="st0" points="-652.8,90.4 -652.8,85.5 -652.1,85.5 -652.1,89.9 -649.9,89.9 -649.9,90.4 	"/>
	<rect x="-648.1" y="85.5" class="st0" width="0.7" height="4.9"/>
	<path class="st0" d="M-644.3,89.9h0.9c0.6,0,1.1-0.2,1.3-0.5c0.3-0.4,0.4-0.9,0.4-1.5c0-0.6-0.1-1-0.4-1.4
		c-0.2-0.2-0.4-0.3-0.6-0.4c-0.2-0.1-0.6-0.1-1.1-0.1h-0.6V89.9z M-645,90.4v-4.9h1.6c0.5,0,0.9,0.1,1.2,0.2
		c0.3,0.1,0.6,0.3,0.8,0.5c0.3,0.4,0.5,0.9,0.5,1.6c0,0.8-0.2,1.4-0.6,1.9c-0.4,0.4-1,0.7-1.8,0.7H-645z"/>
	<path class="st0" d="M-636.3,88.5l-0.8-2.1l-0.8,2.1H-636.3z M-635.6,90.4l-0.5-1.3h-2.1l-0.5,1.3h-0.6l1.9-4.9h0.7l1.9,4.9H-635.6
		z"/>
	<path class="st0" d="M-632.3,89.9h0.9c0.6,0,1.1-0.2,1.3-0.5c0.3-0.4,0.4-0.9,0.4-1.5c0-0.6-0.1-1-0.4-1.4
		c-0.2-0.2-0.4-0.3-0.6-0.4c-0.2-0.1-0.6-0.1-1.1-0.1h-0.6V89.9z M-633,90.4v-4.9h1.6c0.5,0,0.9,0.1,1.2,0.2
		c0.3,0.1,0.6,0.3,0.8,0.5c0.3,0.4,0.5,0.9,0.5,1.6c0,0.8-0.2,1.4-0.6,1.9c-0.4,0.4-1,0.7-1.8,0.7H-633z"/>
	<polygon class="st0" points="-626.8,90.4 -626.8,85.5 -624,85.5 -624,86 -626.1,86 -626.1,87.6 -624.4,87.6 -624.4,88.1 
		-626.1,88.1 -626.1,89.9 -623.9,89.9 -623.9,90.4 	"/>
	<path class="st0" d="M-617.7,90.5c-0.3,0-0.7-0.1-1.3-0.2v-0.7c0.5,0.3,1,0.4,1.3,0.4c0.3,0,0.5-0.1,0.7-0.2
		c0.2-0.1,0.2-0.3,0.2-0.6c0-0.2-0.1-0.4-0.2-0.5c-0.1-0.1-0.3-0.3-0.6-0.4l-0.3-0.2c-0.4-0.2-0.7-0.5-0.9-0.7
		c-0.2-0.2-0.3-0.5-0.3-0.7c0-0.4,0.1-0.7,0.4-0.9c0.3-0.2,0.6-0.4,1-0.4c0.4,0,0.8,0.1,1.2,0.2v0.6c-0.5-0.2-0.9-0.3-1.1-0.3
		c-0.2,0-0.4,0.1-0.6,0.2c-0.2,0.1-0.2,0.3-0.2,0.5c0,0.2,0.1,0.3,0.2,0.4c0.1,0.1,0.3,0.3,0.6,0.4l0.3,0.2c0.4,0.2,0.7,0.5,0.9,0.7
		s0.2,0.5,0.2,0.8c0,0.4-0.2,0.8-0.5,1C-616.8,90.4-617.2,90.5-617.7,90.5"/>
	<path class="st0" d="M-611.9,90c0.5,0,0.9-0.2,1.2-0.5c0.3-0.4,0.4-0.9,0.4-1.5c0-0.6-0.1-1.1-0.4-1.5c-0.3-0.4-0.7-0.5-1.1-0.5
		c-0.5,0-0.9,0.2-1.1,0.5c-0.3,0.4-0.4,0.9-0.4,1.5c0,0.6,0.1,1.1,0.4,1.5C-612.8,89.8-612.4,90-611.9,90 M-611.9,90.5
		c-0.7,0-1.2-0.2-1.6-0.7c-0.4-0.5-0.6-1.1-0.6-1.9c0-0.8,0.2-1.4,0.6-1.9c0.4-0.5,1-0.7,1.7-0.7c0.7,0,1.2,0.2,1.7,0.7
		c0.4,0.5,0.6,1.1,0.6,1.9c0,0.8-0.2,1.4-0.6,1.9C-610.7,90.3-611.2,90.5-611.9,90.5"/>
	<path class="st0" d="M-605.4,90.5c-0.8,0-1.3-0.2-1.8-0.7c-0.4-0.4-0.6-1.1-0.6-1.9c0-0.8,0.2-1.4,0.6-1.9c0.4-0.4,1-0.7,1.8-0.7
		c0.4,0,0.9,0.1,1.5,0.2v0.6c-0.7-0.2-1.2-0.3-1.5-0.3c-0.5,0-0.9,0.2-1.2,0.5s-0.4,0.9-0.4,1.5c0,0.6,0.2,1.1,0.5,1.5
		c0.3,0.4,0.7,0.5,1.3,0.5c0.5,0,1-0.1,1.5-0.4v0.6C-604.3,90.4-604.9,90.5-605.4,90.5"/>
	<rect x="-601.7" y="85.5" class="st0" width="0.7" height="4.9"/>
	<path class="st0" d="M-596.1,88.5l-0.8-2.1l-0.8,2.1H-596.1z M-595.4,90.4l-0.5-1.3h-2.1l-0.5,1.3h-0.6l1.9-4.9h0.7l1.9,4.9H-595.4
		z"/>
	<polygon class="st0" points="-592.8,90.4 -592.8,85.5 -592.1,85.5 -592.1,89.9 -589.9,89.9 -589.9,90.4 	"/>
	<path class="st0" d="M-786,57.5h3l-1.5-3.9L-786,57.5z M-789,61.4l3.8-9.8h2l3.8,9.8h-2.1l-1-2.6h-4l-1,2.6H-789z"/>
	<polygon class="st0" points="-777.7,61.4 -777.7,51.6 -775.6,51.6 -775.6,60 -771.2,60 -771.2,61.4 	"/>
	<path class="st0" d="M-767.5,60h0.4c0.8,0,1.4-0.1,1.8-0.3c0.3-0.2,0.5-0.5,0.5-1c0-0.5-0.2-0.9-0.6-1.2c-0.4-0.3-1-0.5-1.6-0.5
		h-0.4V60z M-767.5,55.7h0.5c0.6,0,1-0.1,1.3-0.4c0.3-0.3,0.5-0.7,0.5-1.2c0-0.4-0.1-0.8-0.4-0.9c-0.3-0.2-0.8-0.2-1.5-0.2h-0.4
		V55.7z M-769.5,61.4v-9.8h3.3c1,0,1.7,0.2,2.2,0.6c0.5,0.4,0.8,0.9,0.8,1.6c0,1.2-0.8,2-2.3,2.5c1.8,0.4,2.7,1.3,2.7,2.7
		c0,0.8-0.3,1.4-0.8,1.8c-0.5,0.4-1.3,0.6-2.3,0.6H-769.5z"/>
	<polygon class="st0" points="-760.6,61.4 -760.6,51.6 -754.5,51.6 -754.5,52.9 -758.6,52.9 -758.6,55.7 -755.2,55.7 -755.2,57 
		-758.6,57 -758.6,60 -754.2,60 -754.2,61.4 	"/>
	<path class="st0" d="M-750.3,56h0.5c1.5,0,2.2-0.6,2.2-1.8c0-0.9-0.7-1.3-2-1.3h-0.7V56z M-752.2,61.4v-9.8h3.7c2,0,3,0.8,3,2.4
		c0,0.6-0.2,1.2-0.5,1.6c-0.3,0.5-0.8,0.9-1.4,1.1l3.2,4.6h-2.5l-2.4-4h-1.1v4H-752.2z"/>
	<polygon class="st0" points="-740.1,61.4 -740.1,52.9 -743.6,52.9 -743.6,51.6 -734.6,51.6 -734.6,52.9 -738.1,52.9 -738.1,61.4 	
		"/>
	<polygon class="st0" points="-728.1,61.4 -728.1,51.6 -722,51.6 -722,52.9 -726.1,52.9 -726.1,55.7 -722.7,55.7 -722.7,57 
		-726.1,57 -726.1,60 -721.7,60 -721.7,61.4 	"/>
	<rect x="-719.7" y="51.6" class="st0" width="2" height="9.8"/>
	<polygon class="st0" points="-714.8,61.4 -714.8,51.6 -713,51.6 -708.5,58.3 -708.5,51.6 -706.9,51.6 -706.9,61.4 -708.7,61.4 
		-713.2,54.7 -713.2,61.4 	"/>
	<path class="st0" d="M-704.7,61.3v-1.7c1.1,0.4,2,0.7,2.7,0.7c0.5,0,0.9-0.1,1.2-0.3c0.3-0.2,0.5-0.6,0.5-1c0-0.3-0.1-0.6-0.3-0.8
		c-0.2-0.2-0.5-0.5-1.1-0.8l-0.7-0.4c-0.9-0.5-1.5-1-1.9-1.4c-0.4-0.4-0.5-1-0.5-1.6c0-0.8,0.3-1.4,0.9-1.9c0.6-0.5,1.4-0.7,2.3-0.7
		c0.8,0,1.7,0.1,2.6,0.3v1.6c-1-0.4-1.8-0.5-2.4-0.5c-0.4,0-0.8,0.1-1.1,0.3c-0.3,0.2-0.4,0.5-0.4,0.8c0,0.3,0.1,0.5,0.3,0.7
		c0.2,0.2,0.5,0.4,1.1,0.7l0.7,0.4c0.9,0.5,1.6,1,1.9,1.5c0.4,0.4,0.5,1,0.5,1.6c0,0.9-0.3,1.6-1,2.1c-0.7,0.5-1.6,0.8-2.8,0.8
		C-702.7,61.6-703.6,61.5-704.7,61.3"/>
	<polygon class="st0" points="-693.7,61.4 -693.7,52.9 -697.2,52.9 -697.2,51.6 -688.1,51.6 -688.1,52.9 -691.6,52.9 -691.6,61.4 	
		"/>
	<polygon class="st0" points="-686.4,61.4 -686.4,51.6 -680.3,51.6 -680.3,52.9 -684.4,52.9 -684.4,55.7 -681.1,55.7 -681.1,57 
		-684.4,57 -684.4,60 -680,60 -680,61.4 	"/>
	<rect x="-678" y="51.6" class="st0" width="2" height="9.8"/>
	<polygon class="st0" points="-673.2,61.4 -673.2,51.6 -671.4,51.6 -666.9,58.3 -666.9,51.6 -665.2,51.6 -665.2,61.4 -667,61.4 
		-671.5,54.7 -671.5,61.4 	"/>
	<path class="st2" d="M-862.3,76.8c-0.8,0-1.8-0.2-3-0.5v-1.6c1.3,0.6,2.4,0.9,3.2,0.9c0.6,0,1.2-0.2,1.6-0.5
		c0.4-0.3,0.6-0.8,0.6-1.3c0-0.5-0.1-0.8-0.4-1.2c-0.3-0.3-0.7-0.7-1.4-1.1l-0.8-0.5c-1-0.6-1.7-1.1-2.1-1.6
		c-0.4-0.5-0.6-1.1-0.6-1.7c0-0.9,0.3-1.6,1-2.2c0.6-0.6,1.5-0.9,2.5-0.9c0.9,0,1.8,0.2,2.8,0.4v1.5c-1.2-0.5-2.1-0.7-2.7-0.7
		c-0.6,0-1,0.2-1.4,0.5c-0.4,0.3-0.6,0.7-0.6,1.1c0,0.4,0.1,0.7,0.4,1s0.8,0.7,1.5,1.1l0.8,0.5c1,0.6,1.7,1.1,2.1,1.6
		c0.4,0.5,0.6,1.1,0.6,1.8c0,1-0.4,1.8-1.1,2.4C-860.1,76.5-861.1,76.8-862.3,76.8"/>
	<path class="st2" d="M-852.6,75.9c0.8,0,1.4-0.3,1.9-0.9c0.4-0.6,0.7-1.4,0.7-2.5c0-1-0.2-1.8-0.7-2.4c-0.4-0.6-1.1-0.9-1.8-0.9
		c-0.8,0-1.4,0.3-1.8,0.9c-0.4,0.6-0.7,1.4-0.7,2.4c0,1,0.2,1.8,0.7,2.4C-853.9,75.6-853.3,75.9-852.6,75.9 M-852.6,76.7
		c-1.1,0-2-0.4-2.6-1.1c-0.7-0.8-1-1.8-1-3c0-1.3,0.3-2.3,1-3c0.7-0.8,1.6-1.1,2.7-1.1c1.1,0,2,0.4,2.7,1.1c0.7,0.8,1,1.7,1,3
		c0,1.3-0.3,2.3-1,3C-850.5,76.3-851.4,76.7-852.6,76.7"/>
	<path class="st2" d="M-843.5,76.7c-1.2,0-2.2-0.4-2.8-1.1c-0.7-0.7-1-1.7-1-3.1c0-1.3,0.3-2.3,1-3.1c0.7-0.7,1.6-1.1,2.9-1.1
		c0.7,0,1.5,0.1,2.5,0.3v1c-1.1-0.4-1.9-0.6-2.5-0.6c-0.9,0-1.5,0.3-2,0.9c-0.5,0.6-0.7,1.4-0.7,2.4c0,1,0.2,1.8,0.8,2.4
		s1.2,0.9,2,0.9c0.7,0,1.5-0.2,2.4-0.7v1C-841.7,76.5-842.6,76.7-843.5,76.7"/>
	<rect x="-838.9" y="68.6" class="st2" width="1.1" height="7.9"/>
	<polygon class="st2" points="-835.3,76.5 -835.3,68.6 -830.9,68.6 -830.9,69.5 -834.2,69.5 -834.2,72 -831.4,72 -831.4,72.8 
		-834.2,72.8 -834.2,75.7 -830.7,75.7 -830.7,76.5 	"/>
	<path class="st2" d="M-827.8,75.7h1.4c1,0,1.7-0.3,2.2-0.8c0.5-0.6,0.7-1.4,0.7-2.4c0-0.9-0.2-1.7-0.7-2.2c-0.3-0.3-0.6-0.5-1-0.7
		c-0.4-0.1-0.9-0.2-1.7-0.2h-0.9V75.7z M-828.9,76.5v-7.9h2.6c0.8,0,1.4,0.1,1.9,0.3c0.5,0.2,0.9,0.5,1.2,0.9
		c0.6,0.7,0.8,1.5,0.8,2.6c0,1.3-0.3,2.3-1,3.1c-0.7,0.7-1.7,1.1-2.9,1.1H-828.9z"/>
	<path class="st2" d="M-816.3,73.5l-1.3-3.4l-1.3,3.4H-816.3z M-815.1,76.5l-0.9-2.2h-3.3l-0.9,2.2h-1l3.1-7.9h1.1l3.1,7.9H-815.1z"
		/>
	<path class="st2" d="M-811.2,75.7h1.4c1,0,1.7-0.3,2.2-0.8c0.5-0.6,0.7-1.4,0.7-2.4c0-0.9-0.2-1.7-0.7-2.2c-0.3-0.3-0.6-0.5-1-0.7
		c-0.4-0.1-0.9-0.2-1.7-0.2h-0.9V75.7z M-812.4,76.5v-7.9h2.6c0.8,0,1.4,0.1,1.9,0.3c0.5,0.2,0.9,0.5,1.2,0.9
		c0.6,0.7,0.8,1.5,0.8,2.6c0,1.3-0.3,2.3-1,3.1c-0.7,0.7-1.7,1.1-2.9,1.1H-812.4z"/>
	<polygon class="st2" points="-803.7,76.5 -803.7,68.6 -799.4,68.6 -799.4,69.5 -802.6,69.5 -802.6,72 -799.9,72 -799.9,72.8 
		-802.6,72.8 -802.6,75.7 -799.1,75.7 -799.1,76.5 	"/>
	<path class="st2" d="M-792.4,75.7h0.2c0.8,0,1.3,0,1.6-0.2c0.5-0.2,0.7-0.6,0.7-1.1c0-0.5-0.2-0.9-0.6-1.2
		c-0.4-0.3-0.9-0.5-1.5-0.5h-0.3V75.7z M-792.4,72.1h0.4c0.6,0,1-0.1,1.4-0.4c0.3-0.3,0.5-0.6,0.5-1.1c0-0.8-0.6-1.2-1.8-1.2h-0.4
		V72.1z M-793.5,76.5v-7.9h2c0.8,0,1.4,0.2,1.8,0.4c0.4,0.3,0.6,0.7,0.6,1.3c0,1-0.5,1.6-1.6,2c1.3,0.4,1.9,1.1,1.9,2.1
		c0,0.6-0.2,1.1-0.6,1.5c-0.4,0.3-1,0.5-1.8,0.5H-793.5z"/>
	<polygon class="st2" points="-786.8,76.5 -786.8,68.6 -782.4,68.6 -782.4,69.5 -785.7,69.5 -785.7,72 -782.9,72 -782.9,72.8 
		-785.7,72.8 -785.7,75.7 -782.2,75.7 -782.2,76.5 	"/>
	<polygon class="st2" points="-780.4,76.5 -780.4,68.6 -779.4,68.6 -775.4,74.7 -775.4,68.6 -774.4,68.6 -774.4,76.5 -775.5,76.5 
		-779.5,70.4 -779.5,76.5 	"/>
	<polygon class="st2" points="-771.9,76.5 -771.9,68.6 -767.6,68.6 -767.6,69.5 -770.8,69.5 -770.8,72 -768.1,72 -768.1,72.8 
		-770.8,72.8 -770.8,75.7 -767.3,75.7 -767.3,76.5 	"/>
	<polygon class="st2" points="-765.6,76.5 -765.6,68.6 -761.2,68.6 -761.2,69.5 -764.5,69.5 -764.5,72.1 -761.7,72.1 -761.7,72.9 
		-764.5,72.9 -764.5,76.5 	"/>
	<rect x="-759.3" y="68.6" class="st2" width="1.1" height="7.9"/>
	<path class="st2" d="M-752.4,76.7c-1.2,0-2.2-0.4-2.8-1.1s-1-1.7-1-3.1c0-1.3,0.3-2.3,1-3.1c0.7-0.7,1.6-1.1,2.9-1.1
		c0.7,0,1.5,0.1,2.5,0.3v1c-1.1-0.4-1.9-0.6-2.5-0.6c-0.9,0-1.5,0.3-2,0.9c-0.5,0.6-0.7,1.4-0.7,2.4c0,1,0.2,1.8,0.8,2.4
		s1.2,0.9,2,0.9c0.7,0,1.5-0.2,2.4-0.7v1C-750.6,76.5-751.4,76.7-752.4,76.7"/>
	<polygon class="st2" points="-747.7,76.5 -747.7,68.6 -743.3,68.6 -743.3,69.5 -746.6,69.5 -746.6,72 -743.9,72 -743.9,72.8 
		-746.6,72.8 -746.6,75.7 -743.1,75.7 -743.1,76.5 	"/>
	<polygon class="st2" points="-741.4,76.5 -741.4,68.6 -740.3,68.6 -736.3,74.7 -736.3,68.6 -735.4,68.6 -735.4,76.5 -736.5,76.5 
		-740.4,70.4 -740.4,76.5 	"/>
	<polygon class="st2" points="-731,76.5 -731,69.5 -733.8,69.5 -733.8,68.6 -727.1,68.6 -727.1,69.5 -729.9,69.5 -729.9,76.5 	"/>
	<polygon class="st2" points="-725.6,76.5 -725.6,68.6 -721.2,68.6 -721.2,69.5 -724.4,69.5 -724.4,72 -721.7,72 -721.7,72.8 
		-724.4,72.8 -724.4,75.7 -720.9,75.7 -720.9,76.5 	"/>
	<rect x="-715.3" y="68.6" class="st2" width="1.1" height="7.9"/>
	<path class="st2" d="M-710.2,76.7c-0.5,0-1.2-0.1-2-0.4v-1.1c0.9,0.4,1.6,0.6,2.2,0.6c0.4,0,0.8-0.1,1.1-0.3
		c0.3-0.2,0.4-0.5,0.4-0.9c0-0.3-0.1-0.6-0.3-0.8c-0.2-0.2-0.5-0.5-1-0.7l-0.5-0.3c-0.7-0.4-1.1-0.7-1.4-1.1
		c-0.3-0.3-0.4-0.7-0.4-1.2c0-0.6,0.2-1.1,0.7-1.5c0.4-0.4,1-0.6,1.7-0.6c0.6,0,1.2,0.1,1.9,0.3v1c-0.8-0.3-1.4-0.5-1.9-0.5
		c-0.4,0-0.7,0.1-1,0.3c-0.3,0.2-0.4,0.5-0.4,0.8c0,0.3,0.1,0.5,0.3,0.7c0.2,0.2,0.5,0.4,1,0.7l0.6,0.3c0.7,0.4,1.2,0.8,1.4,1.1
		c0.3,0.3,0.4,0.8,0.4,1.2c0,0.7-0.3,1.2-0.8,1.6C-708.7,76.5-709.4,76.7-710.2,76.7"/>
	<path class="st2" d="M-704.3,72.3h0.4c1.4,0,2.1-0.6,2.1-1.7c0-0.8-0.6-1.2-1.8-1.2h-0.7V72.3z M-705.4,76.5v-7.9h2.4
		c0.8,0,1.3,0.2,1.7,0.5c0.4,0.3,0.6,0.8,0.6,1.5c0,1.1-0.5,1.8-1.6,2.2l2.6,3.7h-1.4l-2.2-3.3h-1v3.3H-705.4z"/>
	<path class="st2" d="M-694.1,73.5l-1.3-3.4l-1.3,3.4H-694.1z M-692.9,76.5l-0.9-2.2h-3.3l-0.9,2.2h-1l3.1-7.9h1.1l3.1,7.9H-692.9z"
		/>
	<polygon class="st2" points="-690.1,76.5 -690.1,68.6 -685.7,68.6 -685.7,69.5 -689,69.5 -689,72 -686.3,72 -686.3,72.8 -689,72.8 
		-689,75.7 -685.5,75.7 -685.5,76.5 	"/>
	<polygon class="st2" points="-683.8,76.5 -683.8,68.6 -682.6,68.6 -682.6,75.7 -679.1,75.7 -679.1,76.5 	"/>
	<rect x="-677.5" y="68.6" class="st2" width="1.1" height="7.9"/>
	<polygon class="st2" points="-672.1,76.5 -672.1,69.5 -674.9,69.5 -674.9,68.6 -668.2,68.6 -668.2,69.5 -671,69.5 -671,76.5 	"/>
	<path class="st2" d="M-662.6,73.5l-1.3-3.4l-1.3,3.4H-662.6z M-661.4,76.5l-0.9-2.2h-3.3l-0.9,2.2h-1l3.1-7.9h1.1l3.1,7.9H-661.4z"
		/>
	<path class="st2" d="M-653.6,75.7h0.2c0.8,0,1.3,0,1.6-0.2c0.5-0.2,0.7-0.6,0.7-1.1c0-0.5-0.2-0.9-0.6-1.2
		c-0.4-0.3-0.9-0.5-1.5-0.5h-0.3V75.7z M-653.6,72.1h0.4c0.6,0,1-0.1,1.4-0.4c0.3-0.3,0.5-0.6,0.5-1.1c0-0.8-0.6-1.2-1.8-1.2h-0.4
		V72.1z M-654.7,76.5v-7.9h2c0.8,0,1.4,0.2,1.8,0.4c0.4,0.3,0.6,0.7,0.6,1.3c0,1-0.5,1.6-1.6,2c1.3,0.4,1.9,1.1,1.9,2.1
		c0,0.6-0.2,1.1-0.6,1.5c-0.4,0.3-1,0.5-1.8,0.5H-654.7z"/>
	<path class="st2" d="M-646.9,72.3h0.4c1.4,0,2.1-0.6,2.1-1.7c0-0.8-0.6-1.2-1.8-1.2h-0.7V72.3z M-648,76.5v-7.9h2.4
		c0.8,0,1.3,0.2,1.7,0.5c0.4,0.3,0.6,0.8,0.6,1.5c0,1.1-0.5,1.8-1.6,2.2l2.6,3.7h-1.4l-2.2-3.3h-1v3.3H-648z"/>
	<path class="st2" d="M-636.7,73.5l-1.3-3.4l-1.3,3.4H-636.7z M-635.5,76.5l-0.9-2.2h-3.3l-0.9,2.2h-1l3.1-7.9h1.1l3.1,7.9H-635.5z"
		/>
	<path class="st2" d="M-631.2,76.7c-0.5,0-1.2-0.1-2-0.4v-1.1c0.9,0.4,1.6,0.6,2.2,0.6c0.4,0,0.8-0.1,1.1-0.3
		c0.3-0.2,0.4-0.5,0.4-0.9c0-0.3-0.1-0.6-0.3-0.8c-0.2-0.2-0.5-0.5-1-0.7l-0.5-0.3c-0.7-0.4-1.1-0.7-1.4-1.1
		c-0.3-0.3-0.4-0.7-0.4-1.2c0-0.6,0.2-1.1,0.7-1.5c0.4-0.4,1-0.6,1.7-0.6c0.6,0,1.2,0.1,1.9,0.3v1c-0.8-0.3-1.4-0.5-1.9-0.5
		c-0.4,0-0.7,0.1-1,0.3c-0.3,0.2-0.4,0.5-0.4,0.8c0,0.3,0.1,0.5,0.3,0.7c0.2,0.2,0.5,0.4,1,0.7l0.6,0.3c0.7,0.4,1.2,0.8,1.4,1.1
		c0.3,0.3,0.4,0.8,0.4,1.2c0,0.7-0.3,1.2-0.8,1.6C-629.7,76.5-630.4,76.7-631.2,76.7"/>
	<rect x="-626.4" y="68.6" class="st2" width="1.1" height="7.9"/>
	<polygon class="st2" points="-622.8,76.5 -622.8,68.6 -621.7,68.6 -621.7,75.7 -618.2,75.7 -618.2,76.5 	"/>
	<polygon class="st2" points="-616.6,76.5 -616.6,68.6 -612.2,68.6 -612.2,69.5 -615.5,69.5 -615.5,72 -612.7,72 -612.7,72.8 
		-615.5,72.8 -615.5,75.7 -612,75.7 -612,76.5 	"/>
	<rect x="-610.3" y="68.6" class="st2" width="1.1" height="7.9"/>
	<path class="st2" d="M-605.5,72.3h0.4c1.4,0,2.1-0.6,2.1-1.7c0-0.8-0.6-1.2-1.8-1.2h-0.7V72.3z M-606.7,76.5v-7.9h2.4
		c0.8,0,1.3,0.2,1.7,0.5c0.4,0.3,0.6,0.8,0.6,1.5c0,1.1-0.5,1.8-1.6,2.2l2.6,3.7h-1.4l-2.2-3.3h-1v3.3H-606.7z"/>
	<g>
		<path class="st2" d="M-593,72.1l-2-5l-2,5H-593z M-591.2,76.5l-1.3-3.2h-4.9l-1.3,3.2h-1.5l4.6-11.6h1.6l4.5,11.6H-591.2z"/>
		<rect x="-874.1" y="80.8" class="st2" width="293.6" height="0.7"/>
	</g>
</g>
<g>
	<path class="st0" d="M-324.9,157.3c-0.9-1.5-3-2-4.5-2.2l-0.4-0.1c1.7,2.5,3.2,5,4.4,7.5c0.1-0.3,0.2-0.6,0.3-0.8
		C-324.3,159.9-324.3,158.4-324.9,157.3"/>
	<path class="st0" d="M-343.1,177.2c0.8,2.1,1.7,3.2,2.7,3.4c1.3,0.3,3-0.8,5.5-3.4c0.5-0.5,1.1-1.2,1.7-1.9
		c-2.9,0.1-6.3,0.4-10.3,0.8C-343.4,176.3-343.1,177.2-343.1,177.2"/>
	<path class="st0" d="M-348.8,165.4c1.5,2.3,2.9,5,4.3,8.1c0.4,0,0.8-0.1,1.1-0.2c3.8-0.6,8-0.8,12.2-0.7c2.3-3.3,4.3-6.8,5.4-8.9
		c-1.5-2.9-3.4-5.8-5.8-8.9c-3.6-0.3-7.6-0.3-11.6,0.2c-0.6,1.3-1.5,3.4-2.8,5.6C-347.1,162.4-348,164-348.8,165.4"/>
	<path class="st0" d="M-324.7,148.5c-4.6-4.6-10.7-7.1-17.2-7.1c-5.4,0-10.6,1.7-14.9,5.1c-4.1,3.2-7.1,7.6-8.5,12.6
		c5.2-2.5,12.1-4.5,19.5-5.6c0.5-1.6,0.9-3.1,1.2-4.4c0.7-2.8,1.1-4.8,2.4-5.1c1.4-0.4,3.6,1.1,7.6,5.2c0,0,0,0,0,0l0,0l3,3.6
		c1.7,0.1,3.2,0.3,4.6,0.6l0.2,0c1.3,0.3,3.9,0.8,5,2.8c0.6,1.1,0.6,2.6,0,4.2c-0.7,1.9-1.4,3.7-2.2,5.4c0.7,1.7,1.3,3.4,1.7,5.1
		c0,0.1,0,0.2,0.1,0.4c0.1,0.4-0.3,0.8-0.3,0.8l-0.1,0.2l-0.1-0.2c-0.5-1.7-1.1-3.5-1.8-5.2c-1.1,2.1-2.3,4.1-3.6,6.1
		c3.5,0.3,6.6,0.8,9,1.5c1.1-2.8,1.6-5.7,1.6-8.7C-317.5,159.2-320.1,153.1-324.7,148.5"/>
	<path class="st0" d="M-351.2,172.9c0.6,0.9,2.2,1.1,5.2,0.8c-1-2.6-2.2-5-3.4-7.2C-351,169.5-351.9,171.8-351.2,172.9"/>
	<path class="st0" d="M-333.6,152.6c-2.9-3.4-4.6-4.8-5.7-4.6c-1.2,0.2-2,2-3.1,4.9l0,0.1C-339.3,152.7-336.3,152.5-333.6,152.6"/>
	<path class="st0" d="M-330,175.3c-1.4,1.8-3,3.6-5.1,5.7c-3,3.1-4.7,4.5-6,4.2c-0.9-0.2-1.6-1.3-2.2-3.6c-0.5-1.9-1.1-3.7-1.7-5.3
		l-2.2,0.3c-5,0.7-7.7,0.3-8.7-1.2c-1.4-2.2,1.2-6.5,4.7-11.8c-0.8-1.2-1.6-2.3-2.5-3.4c-0.1-0.1-0.2-0.2-0.2-0.3l-0.1-0.2l0.2,0
		c0.3,0,0.6,0.1,0.9,0.3c0.8,0.9,1.6,1.8,2.3,2.7l0.3-0.5l1.6-2.4c0.9-1.3,1.6-2.8,2.3-4.4c-9.1,1.4-15.6,4.2-18.3,7.7
		c-1.1,1.3-1.5,2.6-1.2,5c0.6,5.6,2.9,10.5,7.1,14.8c4.5,4.6,10.7,7.1,17.1,7.1c7.1,0,13.8-3.1,18.5-8.5c1.1-1.5,1.5-2.7,1-3.7
		C-323.1,176.3-325.7,175.5-330,175.3"/>
	<path class="st0" d="M-400.5,200.4h3l-1.5-3.9L-400.5,200.4z M-403.5,204.3l3.8-9.8h2l3.8,9.8h-2.1l-1-2.6h-4l-1,2.6H-403.5z"/>
	<polygon class="st0" points="-392.2,204.3 -392.2,194.5 -390.2,194.5 -390.2,202.9 -385.8,202.9 -385.8,204.3 	"/>
	<path class="st0" d="M-382.1,202.9h0.4c0.8,0,1.4-0.1,1.8-0.3c0.3-0.2,0.5-0.5,0.5-1c0-0.5-0.2-0.9-0.6-1.2c-0.4-0.3-1-0.5-1.6-0.5
		h-0.4V202.9z M-382.1,198.6h0.5c0.6,0,1-0.1,1.3-0.4c0.3-0.3,0.5-0.7,0.5-1.2c0-0.4-0.1-0.8-0.4-0.9c-0.3-0.2-0.8-0.2-1.5-0.2h-0.4
		V198.6z M-384,204.3v-9.8h3.3c1,0,1.7,0.2,2.2,0.6c0.5,0.4,0.8,0.9,0.8,1.6c0,1.2-0.8,2-2.3,2.5c1.8,0.4,2.7,1.3,2.7,2.7
		c0,0.8-0.3,1.4-0.8,1.8c-0.5,0.4-1.3,0.6-2.3,0.6H-384z"/>
	<polygon class="st0" points="-375.2,204.3 -375.2,194.5 -369.1,194.5 -369.1,195.9 -373.1,195.9 -373.1,198.6 -369.8,198.6 
		-369.8,199.9 -373.1,199.9 -373.1,202.9 -368.8,202.9 -368.8,204.3 	"/>
	<path class="st0" d="M-364.8,199h0.5c1.5,0,2.2-0.6,2.2-1.8c0-0.9-0.7-1.3-2-1.3h-0.7V199z M-366.7,204.3v-9.8h3.7c2,0,3,0.8,3,2.4
		c0,0.6-0.2,1.2-0.5,1.6c-0.3,0.5-0.8,0.9-1.4,1.1l3.2,4.6h-2.5l-2.4-4h-1.1v4H-366.7z"/>
	<polygon class="st0" points="-354.6,204.3 -354.6,195.9 -358.1,195.9 -358.1,194.5 -349.1,194.5 -349.1,195.9 -352.6,195.9 
		-352.6,204.3 	"/>
	<polygon class="st0" points="-342.6,204.3 -342.6,194.5 -336.5,194.5 -336.5,195.9 -340.6,195.9 -340.6,198.6 -337.2,198.6 
		-337.2,199.9 -340.6,199.9 -340.6,202.9 -336.2,202.9 -336.2,204.3 	"/>
	<rect x="-334.2" y="194.5" class="st0" width="2" height="9.8"/>
	<polygon class="st0" points="-329.4,204.3 -329.4,194.5 -327.6,194.5 -323.1,201.2 -323.1,194.5 -321.4,194.5 -321.4,204.3 
		-323.2,204.3 -327.7,197.6 -327.7,204.3 	"/>
	<path class="st0" d="M-319.2,204.2v-1.7c1.1,0.4,2,0.7,2.7,0.7c0.5,0,0.9-0.1,1.2-0.3c0.3-0.2,0.5-0.6,0.5-1c0-0.3-0.1-0.6-0.3-0.8
		c-0.2-0.2-0.5-0.5-1.1-0.8l-0.7-0.4c-0.9-0.5-1.5-1-1.9-1.4c-0.4-0.4-0.5-1-0.5-1.6c0-0.8,0.3-1.4,0.9-1.9c0.6-0.5,1.4-0.7,2.3-0.7
		c0.8,0,1.7,0.1,2.6,0.3v1.6c-1-0.4-1.8-0.5-2.4-0.5c-0.4,0-0.8,0.1-1.1,0.3c-0.3,0.2-0.4,0.5-0.4,0.8c0,0.3,0.1,0.5,0.3,0.7
		c0.2,0.2,0.5,0.4,1.1,0.7l0.7,0.4c0.9,0.5,1.6,1,1.9,1.5c0.4,0.4,0.5,1,0.5,1.6c0,0.9-0.3,1.6-1,2.1c-0.7,0.5-1.6,0.8-2.8,0.8
		C-317.3,204.5-318.2,204.4-319.2,204.2"/>
	<polygon class="st0" points="-308.2,204.3 -308.2,195.9 -311.7,195.9 -311.7,194.5 -302.7,194.5 -302.7,195.9 -306.2,195.9 
		-306.2,204.3 	"/>
	<polygon class="st0" points="-301,204.3 -301,194.5 -294.9,194.5 -294.9,195.9 -298.9,195.9 -298.9,198.6 -295.6,198.6 
		-295.6,199.9 -298.9,199.9 -298.9,202.9 -294.6,202.9 -294.6,204.3 	"/>
	<rect x="-292.5" y="194.5" class="st0" width="2" height="9.8"/>
	<polygon class="st0" points="-287.7,204.3 -287.7,194.5 -285.9,194.5 -281.4,201.2 -281.4,194.5 -279.8,194.5 -279.8,204.3 
		-281.6,204.3 -286.1,197.6 -286.1,204.3 	"/>
	<path class="st2" d="M-476.8,219.7c-0.8,0-1.8-0.2-3-0.5v-1.6c1.3,0.6,2.4,0.9,3.2,0.9c0.6,0,1.2-0.2,1.6-0.5
		c0.4-0.3,0.6-0.8,0.6-1.3c0-0.5-0.1-0.8-0.4-1.2c-0.3-0.3-0.7-0.7-1.4-1.1l-0.8-0.5c-1-0.6-1.7-1.1-2.1-1.6
		c-0.4-0.5-0.6-1.1-0.6-1.7c0-0.9,0.3-1.6,1-2.2c0.6-0.6,1.5-0.9,2.5-0.9c0.9,0,1.8,0.2,2.8,0.4v1.5c-1.2-0.5-2.1-0.7-2.7-0.7
		c-0.6,0-1,0.2-1.4,0.5c-0.4,0.3-0.6,0.7-0.6,1.1c0,0.4,0.1,0.7,0.4,1s0.8,0.7,1.5,1.1l0.8,0.5c1,0.6,1.7,1.1,2.1,1.6
		c0.4,0.5,0.6,1.1,0.6,1.8c0,1-0.4,1.8-1.1,2.4C-474.6,219.4-475.6,219.7-476.8,219.7"/>
	<path class="st2" d="M-467.1,218.8c0.8,0,1.4-0.3,1.9-0.9c0.4-0.6,0.7-1.4,0.7-2.5c0-1-0.2-1.8-0.7-2.4c-0.4-0.6-1.1-0.9-1.8-0.9
		c-0.8,0-1.4,0.3-1.8,0.9c-0.4,0.6-0.7,1.4-0.7,2.4c0,1,0.2,1.8,0.7,2.4C-468.5,218.5-467.9,218.8-467.1,218.8 M-467.1,219.6
		c-1.1,0-2-0.4-2.6-1.1c-0.7-0.8-1-1.8-1-3c0-1.3,0.3-2.3,1-3c0.7-0.8,1.6-1.1,2.7-1.1c1.1,0,2,0.4,2.7,1.1c0.7,0.8,1,1.7,1,3
		c0,1.3-0.3,2.3-1,3C-465.1,219.2-466,219.6-467.1,219.6"/>
	<path class="st2" d="M-458,219.6c-1.2,0-2.2-0.4-2.8-1.1c-0.7-0.7-1-1.7-1-3.1c0-1.3,0.3-2.3,1-3.1c0.7-0.7,1.6-1.1,2.9-1.1
		c0.7,0,1.5,0.1,2.5,0.3v1c-1.1-0.4-1.9-0.6-2.5-0.6c-0.9,0-1.5,0.3-2,0.9c-0.5,0.6-0.7,1.4-0.7,2.4c0,1,0.2,1.8,0.8,2.4
		s1.2,0.9,2,0.9c0.7,0,1.5-0.2,2.4-0.7v1C-456.2,219.4-457.1,219.6-458,219.6"/>
	<rect x="-453.4" y="211.5" class="st2" width="1.1" height="7.9"/>
	<polygon class="st2" points="-449.8,219.4 -449.8,211.5 -445.4,211.5 -445.4,212.4 -448.7,212.4 -448.7,214.9 -446,214.9 
		-446,215.7 -448.7,215.7 -448.7,218.6 -445.2,218.6 -445.2,219.4 	"/>
	<path class="st2" d="M-442.3,218.6h1.4c1,0,1.7-0.3,2.2-0.8c0.5-0.6,0.7-1.4,0.7-2.4c0-0.9-0.2-1.7-0.7-2.2c-0.3-0.3-0.6-0.5-1-0.7
		c-0.4-0.1-0.9-0.2-1.7-0.2h-0.9V218.6z M-443.5,219.4v-7.9h2.6c0.8,0,1.4,0.1,1.9,0.3c0.5,0.2,0.9,0.5,1.2,0.9
		c0.6,0.7,0.8,1.5,0.8,2.6c0,1.3-0.3,2.3-1,3.1c-0.7,0.7-1.7,1.1-2.9,1.1H-443.5z"/>
	<path class="st2" d="M-430.9,216.4l-1.3-3.4l-1.3,3.4H-430.9z M-429.7,219.4l-0.9-2.2h-3.3l-0.9,2.2h-1l3.1-7.9h1.1l3.1,7.9H-429.7
		z"/>
	<path class="st2" d="M-425.8,218.6h1.4c1,0,1.7-0.3,2.2-0.8c0.5-0.6,0.7-1.4,0.7-2.4c0-0.9-0.2-1.7-0.7-2.2c-0.3-0.3-0.6-0.5-1-0.7
		c-0.4-0.1-0.9-0.2-1.7-0.2h-0.9V218.6z M-426.9,219.4v-7.9h2.6c0.8,0,1.4,0.1,1.9,0.3c0.5,0.2,0.9,0.5,1.2,0.9
		c0.6,0.7,0.8,1.5,0.8,2.6c0,1.3-0.3,2.3-1,3.1c-0.7,0.7-1.7,1.1-2.9,1.1H-426.9z"/>
	<polygon class="st2" points="-418.3,219.4 -418.3,211.5 -413.9,211.5 -413.9,212.4 -417.2,212.4 -417.2,214.9 -414.4,214.9 
		-414.4,215.7 -417.2,215.7 -417.2,218.6 -413.7,218.6 -413.7,219.4 	"/>
	<path class="st2" d="M-406.9,218.6h0.2c0.8,0,1.3,0,1.6-0.2c0.5-0.2,0.7-0.6,0.7-1.1c0-0.5-0.2-0.9-0.6-1.2
		c-0.4-0.3-0.9-0.5-1.5-0.5h-0.3V218.6z M-406.9,215h0.4c0.6,0,1-0.1,1.4-0.4c0.3-0.3,0.5-0.6,0.5-1.1c0-0.8-0.6-1.2-1.8-1.2h-0.4
		V215z M-408,219.4v-7.9h2c0.8,0,1.4,0.2,1.8,0.4c0.4,0.3,0.6,0.7,0.6,1.3c0,1-0.5,1.6-1.6,2c1.3,0.4,1.9,1.1,1.9,2.1
		c0,0.6-0.2,1.1-0.6,1.5c-0.4,0.3-1,0.5-1.8,0.5H-408z"/>
	<polygon class="st2" points="-401.3,219.4 -401.3,211.5 -396.9,211.5 -396.9,212.4 -400.2,212.4 -400.2,214.9 -397.5,214.9 
		-397.5,215.7 -400.2,215.7 -400.2,218.6 -396.7,218.6 -396.7,219.4 	"/>
	<polygon class="st2" points="-395,219.4 -395,211.5 -393.9,211.5 -389.9,217.6 -389.9,211.5 -389,211.5 -389,219.4 -390,219.4 
		-394,213.3 -394,219.4 	"/>
	<polygon class="st2" points="-386.5,219.4 -386.5,211.5 -382.1,211.5 -382.1,212.4 -385.4,212.4 -385.4,214.9 -382.6,214.9 
		-382.6,215.7 -385.4,215.7 -385.4,218.6 -381.9,218.6 -381.9,219.4 	"/>
	<polygon class="st2" points="-380.1,219.4 -380.1,211.5 -375.7,211.5 -375.7,212.4 -379,212.4 -379,215 -376.2,215 -376.2,215.9 
		-379,215.9 -379,219.4 	"/>
	<rect x="-373.9" y="211.5" class="st2" width="1.1" height="7.9"/>
	<path class="st2" d="M-366.9,219.6c-1.2,0-2.2-0.4-2.8-1.1s-1-1.7-1-3.1c0-1.3,0.3-2.3,1-3.1c0.7-0.7,1.6-1.1,2.9-1.1
		c0.7,0,1.5,0.1,2.5,0.3v1c-1.1-0.4-1.9-0.6-2.5-0.6c-0.9,0-1.5,0.3-2,0.9c-0.5,0.6-0.7,1.4-0.7,2.4c0,1,0.2,1.8,0.8,2.4
		s1.2,0.9,2,0.9c0.7,0,1.5-0.2,2.4-0.7v1C-365.1,219.4-366,219.6-366.9,219.6"/>
	<polygon class="st2" points="-362.3,219.4 -362.3,211.5 -357.9,211.5 -357.9,212.4 -361.1,212.4 -361.1,214.9 -358.4,214.9 
		-358.4,215.7 -361.1,215.7 -361.1,218.6 -357.6,218.6 -357.6,219.4 	"/>
	<polygon class="st2" points="-355.9,219.4 -355.9,211.5 -354.8,211.5 -350.9,217.6 -350.9,211.5 -349.9,211.5 -349.9,219.4 
		-351,219.4 -355,213.3 -355,219.4 	"/>
	<polygon class="st2" points="-345.6,219.4 -345.6,212.4 -348.4,212.4 -348.4,211.5 -341.6,211.5 -341.6,212.4 -344.4,212.4 
		-344.4,219.4 	"/>
	<polygon class="st2" points="-340.1,219.4 -340.1,211.5 -335.7,211.5 -335.7,212.4 -339,212.4 -339,214.9 -336.2,214.9 
		-336.2,215.7 -339,215.7 -339,218.6 -335.5,218.6 -335.5,219.4 	"/>
	<rect x="-329.9" y="211.5" class="st2" width="1.1" height="7.9"/>
	<path class="st2" d="M-324.7,219.6c-0.5,0-1.2-0.1-2-0.4v-1.1c0.9,0.4,1.6,0.6,2.2,0.6c0.4,0,0.8-0.1,1.1-0.3
		c0.3-0.2,0.4-0.5,0.4-0.9c0-0.3-0.1-0.6-0.3-0.8c-0.2-0.2-0.5-0.5-1-0.7l-0.5-0.3c-0.7-0.4-1.1-0.7-1.4-1.1
		c-0.3-0.3-0.4-0.7-0.4-1.2c0-0.6,0.2-1.1,0.7-1.5c0.4-0.4,1-0.6,1.7-0.6c0.6,0,1.2,0.1,1.9,0.3v1c-0.8-0.3-1.4-0.5-1.9-0.5
		c-0.4,0-0.7,0.1-1,0.3c-0.3,0.2-0.4,0.5-0.4,0.8c0,0.3,0.1,0.5,0.3,0.7c0.2,0.2,0.5,0.4,1,0.7l0.6,0.3c0.7,0.4,1.2,0.8,1.4,1.1
		c0.3,0.3,0.4,0.8,0.4,1.2c0,0.7-0.3,1.2-0.8,1.6C-323.2,219.4-323.9,219.6-324.7,219.6"/>
	<path class="st2" d="M-318.8,215.2h0.4c1.4,0,2.1-0.6,2.1-1.7c0-0.8-0.6-1.2-1.8-1.2h-0.7V215.2z M-320,219.4v-7.9h2.4
		c0.8,0,1.3,0.2,1.7,0.5c0.4,0.3,0.6,0.8,0.6,1.5c0,1.1-0.5,1.8-1.6,2.2l2.6,3.7h-1.4l-2.2-3.3h-1v3.3H-320z"/>
	<path class="st2" d="M-308.6,216.4l-1.3-3.4l-1.3,3.4H-308.6z M-307.4,219.4l-0.9-2.2h-3.3l-0.9,2.2h-1l3.1-7.9h1.1l3.1,7.9H-307.4
		z"/>
	<polygon class="st2" points="-304.7,219.4 -304.7,211.5 -300.3,211.5 -300.3,212.4 -303.5,212.4 -303.5,214.9 -300.8,214.9 
		-300.8,215.7 -303.5,215.7 -303.5,218.6 -300,218.6 -300,219.4 	"/>
	<polygon class="st2" points="-298.3,219.4 -298.3,211.5 -297.2,211.5 -297.2,218.6 -293.6,218.6 -293.6,219.4 	"/>
	<rect x="-292.1" y="211.5" class="st2" width="1.1" height="7.9"/>
	<polygon class="st2" points="-286.6,219.4 -286.6,212.4 -289.4,212.4 -289.4,211.5 -282.7,211.5 -282.7,212.4 -285.5,212.4 
		-285.5,219.4 	"/>
	<path class="st2" d="M-277.1,216.4l-1.3-3.4l-1.3,3.4H-277.1z M-275.9,219.4l-0.9-2.2h-3.3l-0.9,2.2h-1l3.1-7.9h1.1l3.1,7.9H-275.9
		z"/>
	<path class="st2" d="M-268.2,218.6h0.2c0.8,0,1.3,0,1.6-0.2c0.5-0.2,0.7-0.6,0.7-1.1c0-0.5-0.2-0.9-0.6-1.2
		c-0.4-0.3-0.9-0.5-1.5-0.5h-0.3V218.6z M-268.2,215h0.4c0.6,0,1-0.1,1.4-0.4c0.3-0.3,0.5-0.6,0.5-1.1c0-0.8-0.6-1.2-1.8-1.2h-0.4
		V215z M-269.3,219.4v-7.9h2c0.8,0,1.4,0.2,1.8,0.4c0.4,0.3,0.6,0.7,0.6,1.3c0,1-0.5,1.6-1.6,2c1.3,0.4,1.9,1.1,1.9,2.1
		c0,0.6-0.2,1.1-0.6,1.5c-0.4,0.3-1,0.5-1.8,0.5H-269.3z"/>
	<path class="st2" d="M-261.4,215.2h0.4c1.4,0,2.1-0.6,2.1-1.7c0-0.8-0.6-1.2-1.8-1.2h-0.7V215.2z M-262.6,219.4v-7.9h2.4
		c0.8,0,1.3,0.2,1.7,0.5c0.4,0.3,0.6,0.8,0.6,1.5c0,1.1-0.5,1.8-1.6,2.2l2.6,3.7h-1.4l-2.2-3.3h-1v3.3H-262.6z"/>
	<path class="st2" d="M-251.2,216.4l-1.3-3.4l-1.3,3.4H-251.2z M-250,219.4l-0.9-2.2h-3.3l-0.9,2.2h-1l3.1-7.9h1.1l3.1,7.9H-250z"/>
	<path class="st2" d="M-245.7,219.6c-0.5,0-1.2-0.1-2-0.4v-1.1c0.9,0.4,1.6,0.6,2.2,0.6c0.4,0,0.8-0.1,1.1-0.3
		c0.3-0.2,0.4-0.5,0.4-0.9c0-0.3-0.1-0.6-0.3-0.8c-0.2-0.2-0.5-0.5-1-0.7l-0.5-0.3c-0.7-0.4-1.1-0.7-1.4-1.1
		c-0.3-0.3-0.4-0.7-0.4-1.2c0-0.6,0.2-1.1,0.7-1.5c0.4-0.4,1-0.6,1.7-0.6c0.6,0,1.2,0.1,1.9,0.3v1c-0.8-0.3-1.4-0.5-1.9-0.5
		c-0.4,0-0.7,0.1-1,0.3c-0.3,0.2-0.4,0.5-0.4,0.8c0,0.3,0.1,0.5,0.3,0.7c0.2,0.2,0.5,0.4,1,0.7l0.6,0.3c0.7,0.4,1.2,0.8,1.4,1.1
		c0.3,0.3,0.4,0.8,0.4,1.2c0,0.7-0.3,1.2-0.8,1.6C-244.2,219.4-244.9,219.6-245.7,219.6"/>
	<rect x="-241" y="211.5" class="st2" width="1.1" height="7.9"/>
	<polygon class="st2" points="-237.4,219.4 -237.4,211.5 -236.2,211.5 -236.2,218.6 -232.7,218.6 -232.7,219.4 	"/>
	<polygon class="st2" points="-231.1,219.4 -231.1,211.5 -226.7,211.5 -226.7,212.4 -230,212.4 -230,214.9 -227.3,214.9 
		-227.3,215.7 -230,215.7 -230,218.6 -226.5,218.6 -226.5,219.4 	"/>
	<rect x="-224.8" y="211.5" class="st2" width="1.1" height="7.9"/>
	<path class="st2" d="M-220.1,215.2h0.4c1.4,0,2.1-0.6,2.1-1.7c0-0.8-0.6-1.2-1.8-1.2h-0.7V215.2z M-221.2,219.4v-7.9h2.4
		c0.8,0,1.3,0.2,1.7,0.5c0.4,0.3,0.6,0.8,0.6,1.5c0,1.1-0.5,1.8-1.6,2.2l2.6,3.7h-1.4l-2.2-3.3h-1v3.3H-221.2z"/>
	<g>
		<path class="st2" d="M-207.5,215l-2-5l-2,5H-207.5z M-205.8,219.4l-1.3-3.2h-4.9l-1.3,3.2h-1.5l4.6-11.6h1.6l4.5,11.6H-205.8z"/>
	</g>
</g>
<g>
	<g>
		<path class="st0" d="M-927.3,138.1c-0.9-1.5-3-2-4.5-2.2l-0.4-0.1c1.7,2.5,3.2,5,4.4,7.5c0.1-0.3,0.2-0.6,0.3-0.8
			C-926.7,140.7-926.7,139.2-927.3,138.1"/>
		<path class="st0" d="M-945.5,157.9c0.8,2.1,1.7,3.2,2.7,3.4c1.3,0.3,3-0.8,5.5-3.4c0.5-0.5,1.1-1.2,1.7-1.9
			c-2.9,0.1-6.3,0.4-10.3,0.8C-945.8,157.1-945.5,157.9-945.5,157.9"/>
		<path class="st0" d="M-951.2,146.2c1.5,2.3,2.9,5,4.3,8.1c0.4,0,0.8-0.1,1.1-0.2c3.8-0.6,8-0.8,12.2-0.7c2.3-3.3,4.3-6.8,5.4-8.9
			c-1.5-2.9-3.4-5.8-5.8-8.9c-3.6-0.3-7.6-0.3-11.6,0.2c-0.6,1.3-1.5,3.4-2.8,5.6C-949.6,143.2-950.5,144.8-951.2,146.2"/>
		<path class="st0" d="M-927.1,129.2c-4.6-4.6-10.7-7.1-17.2-7.1c-5.4,0-10.6,1.7-14.9,5.1c-4.1,3.2-7.1,7.6-8.5,12.6
			c5.2-2.5,12.1-4.5,19.5-5.6c0.5-1.6,0.9-3.1,1.2-4.4c0.7-2.8,1.1-4.8,2.4-5.1c1.4-0.4,3.6,1.1,7.6,5.2c0,0,0,0,0,0l0,0l3,3.6
			c1.7,0.1,3.2,0.3,4.6,0.6l0.2,0c1.3,0.3,3.9,0.8,5,2.8c0.6,1.1,0.6,2.6,0,4.2c-0.7,1.9-1.4,3.7-2.2,5.4c0.7,1.7,1.3,3.4,1.7,5.1
			c0,0.1,0,0.2,0.1,0.4c0.1,0.4-0.3,0.8-0.3,0.8l-0.1,0.2l-0.1-0.2c-0.5-1.7-1.1-3.5-1.8-5.2c-1.1,2.1-2.3,4.1-3.6,6.1
			c3.5,0.3,6.6,0.8,9,1.5c1.1-2.8,1.6-5.7,1.6-8.7C-920,139.9-922.5,133.8-927.1,129.2"/>
		<path class="st0" d="M-953.6,153.6c0.6,0.9,2.2,1.1,5.2,0.8c-1-2.6-2.2-5-3.4-7.2C-953.4,150.3-954.3,152.5-953.6,153.6"/>
		<path class="st0" d="M-936,133.3c-2.9-3.4-4.6-4.8-5.7-4.6c-1.2,0.2-2,2-3.1,4.9l0,0.1C-941.7,133.4-938.7,133.3-936,133.3"/>
		<path class="st0" d="M-932.4,156c-1.4,1.8-3,3.6-5.1,5.7c-3,3.1-4.7,4.5-6,4.2c-0.9-0.2-1.6-1.3-2.2-3.6c-0.5-1.9-1.1-3.7-1.7-5.3
			l-2.2,0.3c-5,0.7-7.7,0.3-8.7-1.2c-1.4-2.2,1.2-6.5,4.7-11.8c-0.8-1.2-1.6-2.3-2.5-3.4c-0.1-0.1-0.2-0.2-0.2-0.3l-0.1-0.2l0.2,0
			c0.3,0,0.6,0.1,0.9,0.3c0.8,0.9,1.6,1.8,2.3,2.7l0.3-0.5l1.6-2.4c0.9-1.3,1.6-2.8,2.3-4.4c-9.1,1.4-15.6,4.2-18.3,7.7
			c-1.1,1.3-1.5,2.6-1.2,5c0.6,5.6,2.9,10.5,7.1,14.8c4.5,4.6,10.7,7.1,17.1,7.1c7.1,0,13.8-3.1,18.5-8.5c1.1-1.5,1.5-2.7,1-3.7
			C-925.5,157.1-928.1,156.2-932.4,156"/>
	</g>
	<g>
		<path class="st0" d="M-1002.9,181.1h3l-1.5-3.9L-1002.9,181.1z M-1005.9,185l3.8-9.8h2l3.8,9.8h-2.1l-1-2.6h-4l-1,2.6H-1005.9z"/>
		<polygon class="st0" points="-994.6,185 -994.6,175.3 -992.6,175.3 -992.6,183.6 -988.2,183.6 -988.2,185 		"/>
		<path class="st0" d="M-984.5,183.6h0.4c0.8,0,1.4-0.1,1.8-0.3c0.3-0.2,0.5-0.5,0.5-1c0-0.5-0.2-0.9-0.6-1.2
			c-0.4-0.3-1-0.5-1.6-0.5h-0.4V183.6z M-984.5,179.3h0.5c0.6,0,1-0.1,1.3-0.4c0.3-0.3,0.5-0.7,0.5-1.2c0-0.4-0.1-0.8-0.4-0.9
			c-0.3-0.2-0.8-0.2-1.5-0.2h-0.4V179.3z M-986.4,185v-9.8h3.3c1,0,1.7,0.2,2.2,0.6c0.5,0.4,0.8,0.9,0.8,1.6c0,1.2-0.8,2-2.3,2.5
			c1.8,0.4,2.7,1.3,2.7,2.7c0,0.8-0.3,1.4-0.8,1.8c-0.5,0.4-1.3,0.6-2.3,0.6H-986.4z"/>
		<polygon class="st0" points="-977.6,185 -977.6,175.3 -971.5,175.3 -971.5,176.6 -975.5,176.6 -975.5,179.3 -972.2,179.3 
			-972.2,180.6 -975.5,180.6 -975.5,183.6 -971.2,183.6 -971.2,185 		"/>
		<path class="st0" d="M-967.2,179.7h0.5c1.5,0,2.2-0.6,2.2-1.8c0-0.9-0.7-1.3-2-1.3h-0.7V179.7z M-969.1,185v-9.8h3.7
			c2,0,3,0.8,3,2.4c0,0.6-0.2,1.2-0.5,1.6c-0.3,0.5-0.8,0.9-1.4,1.1l3.2,4.6h-2.5l-2.4-4h-1.1v4H-969.1z"/>
		<polygon class="st0" points="-957.1,185 -957.1,176.6 -960.6,176.6 -960.6,175.3 -951.5,175.3 -951.5,176.6 -955,176.6 -955,185 
					"/>
		<polygon class="st0" points="-945,185 -945,175.3 -938.9,175.3 -938.9,176.6 -943,176.6 -943,179.3 -939.7,179.3 -939.7,180.6 
			-943,180.6 -943,183.6 -938.6,183.6 -938.6,185 		"/>
		<rect x="-936.6" y="175.3" class="st0" width="2" height="9.8"/>
		<polygon class="st0" points="-931.8,185 -931.8,175.3 -930,175.3 -925.5,181.9 -925.5,175.3 -923.8,175.3 -923.8,185 -925.7,185 
			-930.2,178.4 -930.2,185 		"/>
		<path class="st0" d="M-921.6,184.9v-1.7c1.1,0.4,2,0.7,2.7,0.7c0.5,0,0.9-0.1,1.2-0.3c0.3-0.2,0.5-0.6,0.5-1
			c0-0.3-0.1-0.6-0.3-0.8c-0.2-0.2-0.5-0.5-1.1-0.8l-0.7-0.4c-0.9-0.5-1.5-1-1.9-1.4c-0.4-0.4-0.5-1-0.5-1.6c0-0.8,0.3-1.4,0.9-1.9
			c0.6-0.5,1.4-0.7,2.3-0.7c0.8,0,1.7,0.1,2.6,0.3v1.6c-1-0.4-1.8-0.5-2.4-0.5c-0.4,0-0.8,0.1-1.1,0.3c-0.3,0.2-0.4,0.5-0.4,0.8
			c0,0.3,0.1,0.5,0.3,0.7c0.2,0.2,0.5,0.4,1.1,0.7l0.7,0.4c0.9,0.5,1.6,1,1.9,1.5c0.4,0.4,0.5,1,0.5,1.6c0,0.9-0.3,1.6-1,2.1
			c-0.7,0.5-1.6,0.8-2.8,0.8C-919.7,185.2-920.6,185.1-921.6,184.9"/>
		<polygon class="st0" points="-910.6,185 -910.6,176.6 -914.1,176.6 -914.1,175.3 -905.1,175.3 -905.1,176.6 -908.6,176.6 
			-908.6,185 		"/>
		<polygon class="st0" points="-903.4,185 -903.4,175.3 -897.3,175.3 -897.3,176.6 -901.3,176.6 -901.3,179.3 -898,179.3 
			-898,180.6 -901.3,180.6 -901.3,183.6 -897,183.6 -897,185 		"/>
		<rect x="-894.9" y="175.3" class="st0" width="2" height="9.8"/>
		<polygon class="st0" points="-890.1,185 -890.1,175.3 -888.3,175.3 -883.8,181.9 -883.8,175.3 -882.2,175.3 -882.2,185 -884,185 
			-888.5,178.4 -888.5,185 		"/>
	</g>
</g>
<g>
	<g>
		<path class="st0" d="M-859.1-67.3c-1.2-2-3.9-2.6-5.9-2.9l-0.5-0.1c2.3,3.2,4.2,6.6,5.9,9.9c0.2-0.4,0.3-0.7,0.4-1
			C-858.3-63.9-858.2-65.9-859.1-67.3"/>
		<path class="st0" d="M-883-41.1c1.1,2.8,2.2,4.2,3.6,4.5c1.7,0.3,3.9-1.1,7.3-4.5c0.7-0.7,1.4-1.5,2.2-2.5
			c-3.8,0.1-8.3,0.5-13.6,1.1C-883.4-42.3-883-41.1-883-41.1"/>
		<path class="st0" d="M-890.5-56.6c2,3.1,3.8,6.6,5.6,10.6c0.5-0.1,1-0.1,1.5-0.2c5-0.8,10.5-1.1,16-0.9c3-4.3,5.7-9,7.1-11.7
			c-2-3.8-4.5-7.7-7.7-11.7c-4.7-0.4-9.9-0.3-15.3,0.2c-0.8,1.8-2,4.4-3.6,7.3C-888.3-60.6-889.5-58.5-890.5-56.6"/>
		<path class="st0" d="M-858.7-78.9c-6-6-14.1-9.4-22.6-9.4c-7.2,0-13.9,2.3-19.6,6.7c-5.4,4.2-9.4,10-11.2,16.6
			c6.9-3.4,16-6,25.6-7.4c0.7-2.1,1.1-4.1,1.6-5.8c0.9-3.6,1.5-6.3,3.2-6.7c1.8-0.5,4.7,1.5,10,6.9c0,0,0,0,0,0l0,0l4,4.7
			c2.2,0.2,4.3,0.4,6.1,0.8l0.2,0c1.7,0.3,5.2,1,6.6,3.6c0.8,1.5,0.8,3.4,0,5.6c-0.9,2.6-1.9,4.9-3,7.1c0.9,2.2,1.7,4.5,2.3,6.7
			c0,0.1,0.1,0.3,0.1,0.5c0.1,0.5-0.3,1.1-0.4,1.1l-0.2,0.2l-0.1-0.3c-0.6-2.3-1.5-4.6-2.4-6.8c-1.4,2.8-3,5.5-4.8,8
			c4.7,0.4,8.7,1,11.8,2c1.4-3.6,2.1-7.5,2.1-11.4C-849.4-64.8-852.7-72.9-858.7-78.9"/>
		<path class="st0" d="M-893.6-46.8c0.8,1.1,2.9,1.5,6.8,1c-1.4-3.5-2.8-6.6-4.5-9.5C-893.4-51.2-894.6-48.2-893.6-46.8"/>
		<path class="st0" d="M-870.5-73.5c-3.8-4.5-6-6.3-7.5-6c-1.6,0.3-2.6,2.7-4.1,6.4l-0.1,0.1C-878-73.4-874.1-73.6-870.5-73.5"/>
		<path class="st0" d="M-865.7-43.6c-1.9,2.3-4,4.7-6.7,7.5c-4,4.1-6.2,5.9-8,5.5c-1.2-0.3-2.1-1.8-3-4.7c-0.7-2.5-1.4-4.8-2.2-7
			l-2.9,0.4c-6.5,0.9-10.2,0.4-11.5-1.6c-1.8-2.9,1.6-8.5,6.2-15.6c-1.1-1.5-2.1-3-3.3-4.4c-0.1-0.1-0.2-0.3-0.3-0.4l-0.2-0.2l0.3,0
			c0.4,0,0.8,0.1,1.1,0.4c1.1,1.1,2.1,2.3,3.1,3.6l0.5-0.7l2.1-3.2c1.2-1.8,2.1-3.7,3-5.8c-11.9,1.8-20.5,5.5-24.1,10.2
			c-1.4,1.7-1.9,3.4-1.6,6.6c0.9,7.3,3.8,13.9,9.3,19.4c6,6,14,9.3,22.5,9.3c9.3,0,18.2-4.1,24.3-11.2c1.5-2,1.9-3.6,1.3-4.9
			C-856.7-42.3-860-43.4-865.7-43.6"/>
	</g>
	<g>
		<path class="st0" d="M-837.4-55h4l-2-5.1L-837.4-55z M-841.3-49.9l5-12.8h2.7l5,12.8h-2.7l-1.3-3.4h-5.3l-1.3,3.4H-841.3z"/>
		<polygon class="st0" points="-826.4,-49.9 -826.4,-62.7 -823.7,-62.7 -823.7,-51.7 -817.9,-51.7 -817.9,-49.9 		"/>
		<path class="st0" d="M-813.1-51.7h0.6c1.1,0,1.9-0.1,2.3-0.4c0.4-0.2,0.6-0.7,0.6-1.3c0-0.6-0.3-1.2-0.8-1.6
			c-0.6-0.4-1.3-0.6-2.1-0.6h-0.5V-51.7z M-813.1-57.4h0.6c0.7,0,1.3-0.2,1.8-0.6c0.4-0.4,0.7-0.9,0.7-1.5c0-0.6-0.2-1-0.5-1.2
			c-0.4-0.2-1-0.3-2-0.3h-0.5V-57.4z M-815.6-49.9v-12.8h4.4c1.3,0,2.3,0.2,2.9,0.7c0.7,0.5,1,1.2,1,2.1c0,1.5-1,2.6-3.1,3.3
			c2.4,0.6,3.6,1.8,3.6,3.5c0,1-0.4,1.8-1.1,2.3c-0.7,0.5-1.7,0.8-3,0.8H-815.6z"/>
		<polygon class="st0" points="-804,-49.9 -804,-62.7 -795.9,-62.7 -795.9,-61 -801.3,-61 -801.3,-57.4 -796.9,-57.4 -796.9,-55.6 
			-801.3,-55.6 -801.3,-51.7 -795.5,-51.7 -795.5,-49.9 		"/>
		<path class="st0" d="M-790.3-56.9h0.6c1.9,0,2.9-0.8,2.9-2.4c0-1.1-0.9-1.7-2.6-1.7h-0.9V-56.9z M-792.8-49.9v-12.8h4.8
			c2.6,0,3.9,1.1,3.9,3.2c0,0.8-0.2,1.5-0.7,2.2c-0.4,0.7-1,1.2-1.8,1.5l4.2,6h-3.3l-3.2-5.3h-1.5v5.3H-792.8z"/>
		<polygon class="st0" points="-777,-49.9 -777,-61 -781.6,-61 -781.6,-62.7 -769.7,-62.7 -769.7,-61 -774.3,-61 -774.3,-49.9 		"/>
		<polygon class="st0" points="-761.1,-49.9 -761.1,-62.7 -753.1,-62.7 -753.1,-61 -758.5,-61 -758.5,-57.4 -754.1,-57.4 
			-754.1,-55.6 -758.5,-55.6 -758.5,-51.7 -752.7,-51.7 -752.7,-49.9 		"/>
		<rect x="-750" y="-62.7" class="st0" width="2.7" height="12.8"/>
		<polygon class="st0" points="-743.7,-49.9 -743.7,-62.7 -741.3,-62.7 -735.4,-53.9 -735.4,-62.7 -733.2,-62.7 -733.2,-49.9 
			-735.6,-49.9 -741.5,-58.6 -741.5,-49.9 		"/>
		<path class="st0" d="M-730.3-50v-2.2c1.4,0.6,2.6,0.9,3.6,0.9c0.7,0,1.2-0.2,1.6-0.5c0.4-0.3,0.6-0.7,0.6-1.3
			c0-0.4-0.1-0.8-0.4-1.1c-0.2-0.3-0.7-0.6-1.4-1l-0.9-0.5c-1.2-0.6-2-1.3-2.4-1.9c-0.5-0.6-0.7-1.3-0.7-2.1c0-1.1,0.4-1.9,1.2-2.5
			c0.8-0.6,1.8-1,3.1-1c1,0,2.2,0.1,3.5,0.4v2.1c-1.3-0.5-2.3-0.7-3.1-0.7c-0.6,0-1.1,0.1-1.4,0.4c-0.4,0.3-0.5,0.6-0.5,1
			c0,0.4,0.1,0.7,0.4,0.9c0.2,0.3,0.7,0.6,1.4,1l0.9,0.5c1.2,0.7,2.1,1.3,2.6,1.9c0.5,0.6,0.7,1.3,0.7,2.1c0,1.2-0.4,2.1-1.3,2.8
			c-0.9,0.7-2.1,1-3.7,1C-727.7-49.6-728.9-49.7-730.3-50"/>
		<polygon class="st0" points="-715.8,-49.9 -715.8,-61 -720.4,-61 -720.4,-62.7 -708.5,-62.7 -708.5,-61 -713.1,-61 -713.1,-49.9 
					"/>
		<polygon class="st0" points="-706.3,-49.9 -706.3,-62.7 -698.3,-62.7 -698.3,-61 -703.6,-61 -703.6,-57.4 -699.2,-57.4 
			-699.2,-55.6 -703.6,-55.6 -703.6,-51.7 -697.9,-51.7 -697.9,-49.9 		"/>
		<rect x="-695.2" y="-62.7" class="st0" width="2.7" height="12.8"/>
		<polygon class="st0" points="-688.8,-49.9 -688.8,-62.7 -686.5,-62.7 -680.5,-53.9 -680.5,-62.7 -678.4,-62.7 -678.4,-49.9 
			-680.8,-49.9 -686.7,-58.6 -686.7,-49.9 		"/>
	</g>
</g>
<rect x="-677.7" y="139.2" class="st3" width="31.8" height="31.8"/>
<rect x="-645.9" y="139.2" class="st4" width="31.8" height="31.8"/>
<rect x="-614.2" y="139.2" class="st5" width="31.8" height="31.8"/>
<rect x="-582.4" y="139.2" class="st6" width="31.8" height="31.8"/>
<rect x="-671.8" y="185.2" class="st7" width="27.2" height="27.2"/>
<rect x="-644.6" y="185.2" class="st8" width="27.2" height="27.2"/>
<rect x="-617.4" y="185.2" class="st9" width="27.2" height="27.2"/>
<rect x="-590.3" y="185.2" class="st10" width="27.2" height="27.2"/>
<rect x="-563.1" y="185.2" class="st11" width="27.2" height="27.2"/>
<g>
	<path class="st0" d="M62.3,26.2c-1.3-2.1-4.1-2.7-6.1-3l-0.5-0.1c2.3,3.4,4.4,6.8,6.1,10.3c0.2-0.4,0.3-0.8,0.4-1
		C63.2,29.8,63.2,27.7,62.3,26.2"/>
	<path class="st0" d="M37.5,53.5c1.1,2.9,2.3,4.4,3.7,4.7c1.8,0.4,4.1-1.1,7.5-4.7c0.7-0.7,1.5-1.6,2.3-2.6
		c-3.9,0.1-8.7,0.5-14.1,1.2C37,52.3,37.5,53.5,37.5,53.5"/>
	<path class="st0" d="M29.6,37.4c2.1,3.2,4,6.8,5.8,11.1c0.5-0.1,1-0.2,1.5-0.2c5.2-0.8,11-1.1,16.7-1c3.2-4.5,5.9-9.4,7.4-12.2
		c-2.1-4-4.7-8-8-12.2c-4.9-0.4-10.4-0.4-15.9,0.2c-0.8,1.8-2,4.6-3.8,7.6C31.9,33.2,30.6,35.4,29.6,37.4"/>
	<path class="st0" d="M62.7,14.1C56.4,7.8,48,4.4,39.1,4.4c-7.5,0-14.5,2.4-20.4,6.9C13.2,15.7,9,21.8,7.1,28.6
		c7.2-3.5,16.6-6.2,26.7-7.7c0.7-2.2,1.2-4.2,1.6-6.1c0.9-3.8,1.6-6.5,3.3-7c1.9-0.5,4.9,1.5,10.4,7.2c0,0,0,0,0,0l0,0l4.2,4.9
		c2.3,0.2,4.5,0.4,6.3,0.8l0.2,0c1.7,0.3,5.4,1.1,6.9,3.8c0.9,1.5,0.9,3.5,0,5.8c-1,2.7-2,5.1-3.1,7.4c1,2.3,1.7,4.7,2.4,7
		c0,0.1,0.1,0.3,0.1,0.5c0.1,0.6-0.4,1.1-0.4,1.1l-0.2,0.2l-0.1-0.3c-0.7-2.4-1.5-4.8-2.5-7.1c-1.5,2.9-3.1,5.7-5,8.3
		c4.8,0.4,9.1,1.1,12.3,2.1c1.4-3.8,2.2-7.8,2.2-11.9C72.4,28.8,69,20.4,62.7,14.1"/>
	<path class="st0" d="M26.4,47.6c0.8,1.2,3,1.5,7.1,1.1c-1.4-3.6-3-6.9-4.7-9.9C26.6,43,25.3,46.1,26.4,47.6"/>
	<path class="st0" d="M50.5,19.8c-4-4.7-6.3-6.5-7.8-6.3c-1.7,0.3-2.7,2.8-4.3,6.7l-0.1,0.1C42.6,19.8,46.7,19.7,50.5,19.8"/>
	<path class="st0" d="M55.4,50.9c-1.9,2.4-4.2,4.9-7,7.8c-4.1,4.2-6.4,6.2-8.3,5.7c-1.3-0.3-2.2-1.8-3.1-4.9c-0.7-2.6-1.5-5-2.3-7.3
		l-3,0.4c-6.8,1-10.6,0.4-11.9-1.7c-1.9-3,1.6-8.9,6.5-16.2c-1.1-1.6-2.2-3.1-3.5-4.6c-0.1-0.1-0.2-0.3-0.3-0.4l-0.2-0.2l0.3,0
		c0.4,0,0.9,0.1,1.2,0.4c1.1,1.2,2.2,2.4,3.2,3.7l0.5-0.7l2.2-3.3c1.2-1.8,2.2-3.8,3.1-6c-12.4,1.9-21.4,5.7-25.1,10.6
		c-1.5,1.8-2,3.6-1.6,6.8c0.9,7.6,3.9,14.4,9.7,20.2c6.2,6.3,14.6,9.7,23.5,9.7c9.7,0,19-4.2,25.3-11.6c1.5-2,2-3.7,1.3-5.1
		C64.8,52.3,61.3,51.1,55.4,50.9"/>
</g>
<g>
	<path class="st0" d="M166.3,30.5h5.9l-2.9-7.5L166.3,30.5z M160.5,38.1l7.3-18.8h3.9l7.3,18.8h-4l-2-5h-7.8l-2,5H160.5z"/>
	<polygon class="st0" points="182.3,38.1 182.3,19.3 186.3,19.3 186.3,35.4 194.7,35.4 194.7,38.1 	"/>
	<path class="st0" d="M201.8,35.4h0.8c1.6,0,2.8-0.2,3.4-0.5c0.6-0.3,0.9-1,0.9-1.9c0-0.9-0.4-1.7-1.2-2.4c-0.8-0.6-1.9-0.9-3.1-0.9
		h-0.8V35.4z M201.8,27.1h0.9c1.1,0,2-0.3,2.6-0.8c0.6-0.5,1-1.3,1-2.2c0-0.9-0.3-1.5-0.8-1.8c-0.5-0.3-1.5-0.5-2.9-0.5h-0.8V27.1z
		 M198.1,38.1V19.3h6.4c1.9,0,3.3,0.4,4.3,1.1c1,0.7,1.5,1.8,1.5,3.1c0,2.3-1.5,3.9-4.5,4.8c3.5,0.9,5.3,2.6,5.3,5.2
		c0,1.5-0.5,2.6-1.5,3.4c-1,0.8-2.5,1.2-4.4,1.2H198.1z"/>
	<polygon class="st0" points="215.1,38.1 215.1,19.3 226.9,19.3 226.9,21.8 219.1,21.8 219.1,27.1 225.5,27.1 225.5,29.6 
		219.1,29.6 219.1,35.4 227.5,35.4 227.5,38.1 	"/>
	<path class="st0" d="M235.1,27.8h0.9c2.8,0,4.3-1.1,4.3-3.4c0-1.7-1.3-2.5-3.8-2.5h-1.4V27.8z M231.4,38.1V19.3h7
		c3.8,0,5.7,1.6,5.7,4.7c0,1.2-0.3,2.2-1,3.2c-0.6,1-1.5,1.7-2.7,2.2l6.1,8.8h-4.8l-4.6-7.7h-2.2v7.7H231.4z"/>
	<polygon class="st0" points="254.7,38.1 254.7,21.8 247.9,21.8 247.9,19.3 265.3,19.3 265.3,21.8 258.6,21.8 258.6,38.1 	"/>
	<polygon class="st0" points="277.8,38.1 277.8,19.3 289.6,19.3 289.6,21.8 281.8,21.8 281.8,27.1 288.2,27.1 288.2,29.6 
		281.8,29.6 281.8,35.4 290.2,35.4 290.2,38.1 	"/>
	<rect x="294.1" y="19.3" class="st0" width="3.9" height="18.8"/>
	<polygon class="st0" points="303.4,38.1 303.4,19.3 306.8,19.3 315.5,32.1 315.5,19.3 318.7,19.3 318.7,38.1 315.2,38.1 
		306.5,25.2 306.5,38.1 	"/>
	<path class="st0" d="M323,37.9v-3.2c2,0.9,3.8,1.3,5.2,1.3c1,0,1.8-0.2,2.4-0.7c0.6-0.4,0.9-1.1,0.9-1.8c0-0.6-0.2-1.1-0.5-1.5
		c-0.4-0.4-1-0.9-2.1-1.5l-1.3-0.7c-1.7-0.9-2.9-1.8-3.6-2.7c-0.7-0.9-1-1.9-1-3c0-1.5,0.6-2.8,1.7-3.7c1.1-0.9,2.7-1.4,4.5-1.4
		c1.5,0,3.2,0.2,5.1,0.6v3c-1.9-0.7-3.4-1.1-4.5-1.1c-0.9,0-1.6,0.2-2.1,0.6c-0.5,0.4-0.8,0.9-0.8,1.5c0,0.5,0.2,1,0.5,1.4
		c0.4,0.4,1,0.9,2.1,1.4l1.3,0.7c1.8,1,3.1,1.9,3.8,2.8c0.7,0.9,1,1.9,1,3.1c0,1.7-0.7,3.1-2,4.1c-1.3,1-3.1,1.5-5.4,1.5
		C326.7,38.5,325,38.3,323,37.9"/>
	<polygon class="st0" points="344.2,38.1 344.2,21.8 337.5,21.8 337.5,19.3 354.9,19.3 354.9,21.8 348.1,21.8 348.1,38.1 	"/>
	<polygon class="st0" points="358.1,38.1 358.1,19.3 369.9,19.3 369.9,21.8 362.1,21.8 362.1,27.1 368.5,27.1 368.5,29.6 
		362.1,29.6 362.1,35.4 370.5,35.4 370.5,38.1 	"/>
	<rect x="374.4" y="19.3" class="st0" width="3.9" height="18.8"/>
	<polygon class="st0" points="383.7,38.1 383.7,19.3 387.1,19.3 395.9,32.1 395.9,19.3 399,19.3 399,38.1 395.5,38.1 386.8,25.2 
		386.8,38.1 	"/>
</g>
<g>
	<path class="st2" d="M86.4,62.1c-1.1,0-2.5-0.2-4.3-0.7V59c1.9,0.9,3.4,1.3,4.6,1.3c0.9,0,1.7-0.2,2.2-0.7c0.6-0.5,0.8-1.1,0.8-1.9
		c0-0.6-0.2-1.2-0.6-1.7c-0.4-0.5-1.1-1-2-1.5l-1.1-0.7c-1.4-0.8-2.4-1.6-3-2.3c-0.6-0.7-0.9-1.5-0.9-2.5c0-1.3,0.5-2.3,1.4-3.1
		c0.9-0.8,2.1-1.2,3.5-1.2c1.3,0,2.6,0.2,4,0.6v2.1c-1.7-0.7-3-1-3.9-1c-0.8,0-1.5,0.2-2,0.6c-0.5,0.4-0.8,1-0.8,1.6
		c0,0.6,0.2,1,0.6,1.5c0.4,0.4,1.1,0.9,2.1,1.5l1.2,0.7c1.4,0.8,2.4,1.6,3,2.3c0.6,0.7,0.9,1.6,0.9,2.6c0,1.4-0.5,2.6-1.6,3.5
		C89.6,61.6,88.2,62.1,86.4,62.1"/>
	<path class="st2" d="M100.3,60.7c1.1,0,2-0.4,2.7-1.2c0.6-0.8,0.9-2,0.9-3.5c0-1.5-0.3-2.6-0.9-3.4c-0.6-0.8-1.5-1.2-2.6-1.2
		c-1.1,0-2,0.4-2.6,1.2c-0.6,0.8-0.9,2-0.9,3.4c0,1.5,0.3,2.6,0.9,3.5C98.4,60.3,99.2,60.7,100.3,60.7 M100.3,61.9
		c-1.6,0-2.8-0.5-3.8-1.6c-1-1.1-1.4-2.5-1.4-4.3c0-1.8,0.5-3.2,1.4-4.3c1-1.1,2.2-1.6,3.8-1.6c1.6,0,2.9,0.5,3.8,1.6
		c1,1.1,1.4,2.5,1.4,4.3c0,1.8-0.5,3.3-1.4,4.3C103.2,61.4,101.9,61.9,100.3,61.9"/>
	<path class="st2" d="M113.3,61.9c-1.8,0-3.1-0.5-4.1-1.5c-1-1-1.4-2.5-1.4-4.4c0-1.9,0.5-3.3,1.5-4.4c1-1,2.3-1.6,4.1-1.6
		c1,0,2.2,0.2,3.5,0.5v1.5c-1.5-0.5-2.7-0.8-3.6-0.8c-1.2,0-2.2,0.4-2.8,1.2c-0.7,0.8-1,2-1,3.5c0,1.4,0.4,2.6,1.1,3.4
		c0.7,0.8,1.7,1.2,2.9,1.2c1.1,0,2.2-0.3,3.4-1V61C115.8,61.6,114.6,61.9,113.3,61.9"/>
	<rect x="119.9" y="50.4" class="st2" width="1.6" height="11.3"/>
	<polygon class="st2" points="125,61.6 125,50.4 131.3,50.4 131.3,51.6 126.6,51.6 126.6,55.2 130.5,55.2 130.5,56.4 126.6,56.4 
		126.6,60.4 131.6,60.4 131.6,61.6 	"/>
	<path class="st2" d="M135.7,60.4h2c1.5,0,2.5-0.4,3.1-1.2c0.7-0.8,1-2,1-3.4c0-1.3-0.3-2.4-1-3.1c-0.4-0.5-0.9-0.8-1.4-0.9
		c-0.5-0.2-1.4-0.3-2.4-0.3h-1.3V60.4z M134.1,61.6V50.4h3.7c1.1,0,2,0.1,2.7,0.4c0.7,0.2,1.3,0.7,1.8,1.3c0.8,0.9,1.2,2.2,1.2,3.7
		c0,1.9-0.5,3.3-1.5,4.4c-1,1-2.4,1.5-4.2,1.5H134.1z"/>
	<path class="st2" d="M152.1,57.3l-1.9-4.9l-1.9,4.9H152.1z M153.8,61.6l-1.2-3.1h-4.8l-1.2,3.1h-1.5l4.5-11.3h1.6l4.4,11.3H153.8z"
		/>
	<path class="st2" d="M159.4,60.4h2c1.5,0,2.5-0.4,3.1-1.2c0.7-0.8,1-2,1-3.4c0-1.3-0.3-2.4-1-3.1c-0.4-0.5-0.9-0.8-1.4-0.9
		c-0.5-0.2-1.4-0.3-2.4-0.3h-1.3V60.4z M157.8,61.6V50.4h3.7c1.1,0,2,0.1,2.7,0.4c0.7,0.2,1.3,0.7,1.8,1.3c0.8,0.9,1.2,2.2,1.2,3.7
		c0,1.9-0.5,3.3-1.5,4.4c-1,1-2.4,1.5-4.2,1.5H157.8z"/>
	<polygon class="st2" points="170,61.6 170,50.4 176.3,50.4 176.3,51.6 171.7,51.6 171.7,55.2 175.6,55.2 175.6,56.4 171.7,56.4 
		171.7,60.4 176.6,60.4 176.6,61.6 	"/>
	<path class="st2" d="M186.3,60.4h0.3c1.2,0,1.9-0.1,2.2-0.2c0.6-0.3,1-0.8,1-1.6c0-0.7-0.3-1.2-0.9-1.7c-0.6-0.4-1.3-0.7-2.2-0.7
		h-0.4V60.4z M186.3,55.3h0.5c0.8,0,1.5-0.2,2-0.5c0.5-0.4,0.7-0.9,0.7-1.5c0-1.1-0.8-1.7-2.5-1.7h-0.6V55.3z M184.7,61.6V50.4h2.9
		c1.1,0,2,0.2,2.6,0.6c0.6,0.4,0.9,1,0.9,1.8c0,1.4-0.8,2.3-2.3,2.9c1.8,0.6,2.7,1.6,2.7,3.1c0,0.9-0.3,1.6-0.9,2.1
		c-0.6,0.5-1.5,0.7-2.6,0.7H184.7z"/>
	<polygon class="st2" points="194.3,61.6 194.3,50.4 200.5,50.4 200.5,51.6 195.9,51.6 195.9,55.2 199.8,55.2 199.8,56.4 
		195.9,56.4 195.9,60.4 200.8,60.4 200.8,61.6 	"/>
	<polygon class="st2" points="203.3,61.6 203.3,50.4 204.9,50.4 210.5,59.1 210.5,50.4 211.9,50.4 211.9,61.6 210.4,61.6 
		204.7,52.9 204.7,61.6 	"/>
	<polygon class="st2" points="215.5,61.6 215.5,50.4 221.7,50.4 221.7,51.6 217.1,51.6 217.1,55.2 221,55.2 221,56.4 217.1,56.4 
		217.1,60.4 222,60.4 222,61.6 	"/>
	<polygon class="st2" points="224.5,61.6 224.5,50.4 230.8,50.4 230.8,51.6 226.1,51.6 226.1,55.3 230.1,55.3 230.1,56.5 
		226.1,56.5 226.1,61.6 	"/>
	<rect x="233.5" y="50.4" class="st2" width="1.6" height="11.3"/>
	<path class="st2" d="M243.4,61.9c-1.8,0-3.1-0.5-4.1-1.5c-1-1-1.4-2.5-1.4-4.4c0-1.9,0.5-3.3,1.5-4.4c1-1,2.3-1.6,4.1-1.6
		c1,0,2.2,0.2,3.5,0.5v1.5c-1.5-0.5-2.7-0.8-3.6-0.8c-1.2,0-2.2,0.4-2.8,1.2c-0.7,0.8-1,2-1,3.5c0,1.4,0.4,2.6,1.1,3.4
		c0.7,0.8,1.7,1.2,2.9,1.2c1.1,0,2.2-0.3,3.4-1V61C245.9,61.6,244.7,61.9,243.4,61.9"/>
	<polygon class="st2" points="250,61.6 250,50.4 256.3,50.4 256.3,51.6 251.6,51.6 251.6,55.2 255.5,55.2 255.5,56.4 251.6,56.4 
		251.6,60.4 256.6,60.4 256.6,61.6 	"/>
	<polygon class="st2" points="259.1,61.6 259.1,50.4 260.6,50.4 266.3,59.1 266.3,50.4 267.7,50.4 267.7,61.6 266.1,61.6 
		260.4,52.9 260.4,61.6 	"/>
	<polygon class="st2" points="273.9,61.6 273.9,51.6 269.9,51.6 269.9,50.4 279.5,50.4 279.5,51.6 275.5,51.6 275.5,61.6 	"/>
	<polygon class="st2" points="281.7,61.6 281.7,50.4 288,50.4 288,51.6 283.3,51.6 283.3,55.2 287.2,55.2 287.2,56.4 283.3,56.4 
		283.3,60.4 288.3,60.4 288.3,61.6 	"/>
	<rect x="296.3" y="50.4" class="st2" width="1.6" height="11.3"/>
	<path class="st2" d="M303.6,61.9c-0.8,0-1.7-0.2-2.9-0.5v-1.6c1.3,0.6,2.3,0.9,3.1,0.9c0.6,0,1.1-0.2,1.5-0.5
		c0.4-0.3,0.6-0.8,0.6-1.3c0-0.4-0.1-0.8-0.4-1.1c-0.3-0.3-0.7-0.7-1.4-1l-0.8-0.4c-1-0.5-1.6-1.1-2-1.5c-0.4-0.5-0.6-1.1-0.6-1.7
		c0-0.9,0.3-1.6,0.9-2.1c0.6-0.6,1.4-0.8,2.4-0.8c0.9,0,1.8,0.1,2.7,0.4V52c-1.2-0.5-2.1-0.7-2.6-0.7c-0.6,0-1,0.1-1.4,0.4
		c-0.4,0.3-0.5,0.7-0.5,1.1c0,0.4,0.1,0.7,0.4,1c0.3,0.3,0.7,0.6,1.4,1l0.8,0.5c1,0.6,1.7,1.1,2,1.6c0.4,0.5,0.6,1.1,0.6,1.8
		c0,1-0.4,1.8-1.1,2.4C305.7,61.6,304.8,61.9,303.6,61.9"/>
	<path class="st2" d="M312,55.7h0.5c2,0,3-0.8,3-2.4c0-1.2-0.8-1.7-2.5-1.7h-1V55.7z M310.4,61.6V50.4h3.4c1.1,0,1.9,0.2,2.5,0.7
		c0.6,0.5,0.9,1.2,0.9,2.1c0,1.5-0.8,2.6-2.3,3.2l3.7,5.3h-2l-3.2-4.8H312v4.8H310.4z"/>
	<path class="st2" d="M326.6,57.3l-1.9-4.9l-1.9,4.9H326.6z M328.3,61.6l-1.2-3.1h-4.8l-1.2,3.1h-1.5l4.5-11.3h1.6l4.4,11.3H328.3z"
		/>
	<polygon class="st2" points="332.3,61.6 332.3,50.4 338.5,50.4 338.5,51.6 333.9,51.6 333.9,55.2 337.8,55.2 337.8,56.4 
		333.9,56.4 333.9,60.4 338.9,60.4 338.9,61.6 	"/>
	<polygon class="st2" points="341.3,61.6 341.3,50.4 342.9,50.4 342.9,60.4 348,60.4 348,61.6 	"/>
	<rect x="350.2" y="50.4" class="st2" width="1.6" height="11.3"/>
	<polygon class="st2" points="358,61.6 358,51.6 354.1,51.6 354.1,50.4 363.6,50.4 363.6,51.6 359.6,51.6 359.6,61.6 	"/>
	<path class="st2" d="M371.6,57.3l-1.9-4.9l-1.9,4.9H371.6z M373.3,61.6l-1.2-3.1h-4.8l-1.2,3.1h-1.5l4.5-11.3h1.6l4.4,11.3H373.3z"
		/>
	<path class="st2" d="M384.4,60.4h0.3c1.1,0,1.9-0.1,2.2-0.2c0.6-0.3,1-0.8,1-1.6c0-0.7-0.3-1.2-0.9-1.7c-0.6-0.4-1.3-0.7-2.2-0.7
		h-0.4V60.4z M384.4,55.3h0.5c0.8,0,1.5-0.2,2-0.5c0.5-0.4,0.7-0.9,0.7-1.5c0-1.1-0.8-1.7-2.5-1.7h-0.6V55.3z M382.8,61.6V50.4h2.9
		c1.1,0,2,0.2,2.6,0.6c0.6,0.4,0.9,1,0.9,1.8c0,1.4-0.8,2.3-2.3,2.9c1.8,0.6,2.7,1.6,2.7,3.1c0,0.9-0.3,1.6-0.9,2.1
		c-0.6,0.5-1.5,0.7-2.6,0.7H382.8z"/>
	<path class="st2" d="M394,55.7h0.5c2,0,3-0.8,3-2.4c0-1.2-0.8-1.7-2.5-1.7h-1V55.7z M392.4,61.6V50.4h3.4c1.1,0,1.9,0.2,2.5,0.7
		c0.6,0.5,0.9,1.2,0.9,2.1c0,1.5-0.8,2.6-2.3,3.2l3.7,5.3h-2l-3.2-4.8H394v4.8H392.4z"/>
	<path class="st2" d="M408.5,57.3l-1.9-4.9l-1.9,4.9H408.5z M410.2,61.6l-1.2-3.1h-4.8l-1.2,3.1h-1.5l4.5-11.3h1.6l4.4,11.3H410.2z"
		/>
	<path class="st2" d="M416.4,61.9c-0.8,0-1.7-0.2-2.9-0.5v-1.6c1.3,0.6,2.3,0.9,3.1,0.9c0.6,0,1.1-0.2,1.5-0.5
		c0.4-0.3,0.6-0.8,0.6-1.3c0-0.4-0.1-0.8-0.4-1.1c-0.3-0.3-0.7-0.7-1.4-1l-0.8-0.4c-1-0.5-1.6-1.1-2-1.5c-0.4-0.5-0.6-1.1-0.6-1.7
		c0-0.9,0.3-1.6,0.9-2.1c0.6-0.6,1.4-0.8,2.4-0.8c0.9,0,1.8,0.1,2.7,0.4V52c-1.2-0.5-2.1-0.7-2.7-0.7c-0.6,0-1,0.1-1.4,0.4
		c-0.4,0.3-0.5,0.7-0.5,1.1c0,0.4,0.1,0.7,0.4,1c0.3,0.3,0.7,0.6,1.4,1l0.8,0.5c1,0.6,1.7,1.1,2,1.6c0.4,0.5,0.6,1.1,0.6,1.8
		c0,1-0.4,1.8-1.1,2.4C418.5,61.6,417.6,61.9,416.4,61.9"/>
	<rect x="423.2" y="50.4" class="st2" width="1.6" height="11.3"/>
	<polygon class="st2" points="428.3,61.6 428.3,50.4 429.9,50.4 429.9,60.4 435,60.4 435,61.6 	"/>
	<polygon class="st2" points="437.3,61.6 437.3,50.4 443.5,50.4 443.5,51.6 438.9,51.6 438.9,55.2 442.8,55.2 442.8,56.4 
		438.9,56.4 438.9,60.4 443.9,60.4 443.9,61.6 	"/>
	<rect x="446.3" y="50.4" class="st2" width="1.6" height="11.3"/>
	<path class="st2" d="M453,55.7h0.5c2,0,3-0.8,3-2.4c0-1.2-0.8-1.7-2.5-1.7h-1V55.7z M451.4,61.6V50.4h3.4c1.1,0,1.9,0.2,2.5,0.7
		c0.6,0.5,0.9,1.2,0.9,2.1c0,1.5-0.8,2.6-2.3,3.2l3.7,5.3h-2l-3.2-4.8H453v4.8H451.4z"/>
	<g>
		<path class="st2" d="M471,55.3l-2.8-7.1l-2.8,7.1H471z M473.5,61.6l-1.8-4.6h-7l-1.8,4.6h-2.2l6.6-16.6h2.3l6.5,16.6H473.5z"/>
	</g>
</g>
</svg>
